<svg xmlns="http://www.w3.org/2000/svg" viewBox="0 0 235.62 222.58"><g id="Warstwa_2" data-name="Warstwa 2"><g id="Layer_1" data-name="Layer 1"><path d="M9.72,92.35a185,185,0,0,1,23.8-4.43l-2,.28c9-1.2,18.07-1.69,27.14-2.23q10.2-.63,20.4-1.29l2.27-.14.35,0a9.37,9.37,0,0,0,3.88-1,8.57,8.57,0,0,0,3.36-4c2.51-4.83,5.15-9.59,7.7-14.4,2.44-4.6,4.81-9.25,6.9-14,1.22-2.82,2.41-5.65,3.45-8.54.41-1.13.79-2.27,1.21-3.39.16-.43.33-.85.5-1.28.35-.87-.7,1.61-.31.76l.39-.88c4.29-9.34,10.88-17.52,16.13-26.32H111.64c3.47,6.78,7.83,13.06,11.23,19.88,1.43,2.88,2.6,5.87,4.08,8.72,1.19,2.31,2.5,4.55,3.75,6.81,2.73,4.93,4.89,10.12,7.4,15.16,2.12,4.24,4.28,8.49,6.69,12.57-1.4-2.36-.68-1.6-.36-.73a20,20,0,0,0,1,2.44,10.86,10.86,0,0,0,3.68,3.91c3.16,2.08,7.11,2.43,10.75,2.89l-2-.27c3.93.53,7.81,1.45,11.74,2s7.61,1,11.43,1.28,7.54.33,11.31.57,7.73.68,11.57,1.2l-2-.28A169.75,169.75,0,0,1,226,92.35q-1.69-6.39-3.38-12.79c-4.87,4.63-9.37,9.63-14.1,14.4-2.33,2.35-4.71,4.65-7.22,6.81-.53.45-1.07.9-1.62,1.34s-1.62,1,.27-.19a10.92,10.92,0,0,0-1,.72q-2.82,2.1-5.58,4.28a80.75,80.75,0,0,0-10,8.93c-2,2.24-3.81,4.7-5.74,7-2.22,2.69-4.71,5.11-7.05,7.7a17.25,17.25,0,0,0-4.85,10.95,31.27,31.27,0,0,0,.62,6.69c.39,2.54.94,5.05,1.49,7.55,1.55,7.07,3.24,14.11,4.86,21.17,1.46,6.36,2.81,12.73,4.41,19.06,1.76,7,3.31,14,4.5,21l11.24-8.64c-9.88-4.45-19.69-9-29.56-13.49-5-2.29-10.18-4.39-15.13-6.86a94.21,94.21,0,0,1-13.56-8.26l-1.36-1-.52-.4c-1.08-.82,1.57,1.22.52.4l-2.43-1.92c-1.95-1.55-3.9-3.09-5.88-4.59a53.85,53.85,0,0,0-4.45-3.05c-.35-.22-.71-.44-1.07-.64-2.85-1.52-5.45-1.12-8.21.25-1.49.74-3,1.54-4.42,2.37-8.37,4.78-15.4,11.58-24.06,15.88-6.25,3.1-12.31,6.34-18.28,9.95a162.8,162.8,0,0,1-18.45,10l11.51,6.61c.93-7,1.83-14,2.58-21,.72-6.7,1.12-13.46,2-20.15-.09.68-.19,1.36-.28,2,.8-5.67,2.75-11.24,4.26-16.75.84-3.06,1.67-6.12,2.36-9.22.83-3.68,1.49-7.33.73-11.09-.85-4.28-3.58-8-6.31-11.22a127.79,127.79,0,0,0-9.26-9.65,115.44,115.44,0,0,0-10.62-8.74c-1.37-1,1.17.91.18.14l-1.06-.84c-.77-.62-1.53-1.26-2.27-1.92a49.16,49.16,0,0,1-4.38-4.4c-6.66-7.61-15-13.35-22.12-20.45-2.84-2.83-8-3-10.82,0a7.78,7.78,0,0,0,0,10.81c3.9,3.88,8.17,7.33,12.35,10.9,2,1.7,4,3.43,5.83,5.27s3.45,3.81,5.22,5.69a52.54,52.54,0,0,0,5.22,4.79c1.26,1,2.54,2,3.83,3l1.22.94.62.47c1,.75-.08-.08-.44-.35a101.54,101.54,0,0,1,12,11.11q1.49,1.53,2.9,3.12c.45.52.88,1.05,1.32,1.57s.59,1.08-.48-.63c.16.26.37.51.54.76a24,24,0,0,1,1.67,2.8c.27.55.17,1.07-.4-.95.08.29.21.57.29.86a10.27,10.27,0,0,1,.31,1.44l-.27-2a9.49,9.49,0,0,1,0,2.44c.1-.68.19-1.36.28-2a98.19,98.19,0,0,1-2.85,12.32c-1.2,4.39-2.48,8.76-3.58,13.18a101.47,101.47,0,0,0-2.05,15c-.45,4.69-.9,9.38-1.43,14.06-.69,6.24-1.5,12.47-2.33,18.7-.34,2.57,1.7,5.38,3.79,6.6,2.56,1.5,5.14,1.14,7.72,0,10-4.4,18.92-10.68,28.5-15.87,4.45-2.41,9.15-4.32,13.44-7,3.26-2.05,6.28-4.44,9.38-6.73a100,100,0,0,1,14.38-8.84h-7.72a51.65,51.65,0,0,1,5.07,3.35l1.12.85c-2.27-1.72-.73-.57-.2-.15l2.67,2.12a127.17,127.17,0,0,0,13.77,9.85A157.14,157.14,0,0,0,150.8,206c5.52,2.47,11,5,16.52,7.51,5.92,2.72,11.84,5.45,17.79,8.13,2.89,1.3,5.85,1.44,8.49-.6s3.27-4.91,2.74-8c-1.47-8.76-3.63-17.32-5.73-25.94-2.41-9.84-4.51-19.78-6.77-29.66-1.06-4.63-2.22-9.29-2.88-14l.27,2a18.24,18.24,0,0,1-.15-4.61l-.27,2a7.17,7.17,0,0,1,.18-.9c.11-.44.6-1.63-.07,0s-.2.47,0,.09.35-.52.51-.79c.46-.74-1.41,1.73-.82,1.07.1-.12.2-.25.31-.37.24-.28.49-.56.74-.83.57-.61,1.15-1.21,1.74-1.81a115.75,115.75,0,0,0,7.73-9,61.1,61.1,0,0,1,7.94-8.38q1.69-1.47,3.44-2.87l2-1.58c1.08-.84-1.2.92-.08.06l1.39-1a113.55,113.55,0,0,0,9.67-8c6.17-5.83,11.73-12.26,17.89-18.1,4.25-4,2-11.22-3.37-12.78-14.42-4.17-29.59-5.79-44.52-6.51-4.31-.21-8.61-.58-12.88-1.14l2,.27c-5.16-.7-10.25-1.83-15.41-2.5l2,.28a27.51,27.51,0,0,1-4.12-.8,6,6,0,0,1-.75-.24c0-.11,1.92.94,1.22.51l-.5-.27c-.88-.44,1.69,1.45,1,.81-.89-.88,1.34,2,.61.8s.73,1.91.46,1.11a27.12,27.12,0,0,0-1.3-3.2c-2.1-4.18-4.53-8.22-6.62-12.42-2.41-4.82-4.47-9.8-7.06-14.53-1.19-2.18-2.45-4.33-3.61-6.52-1.38-2.58-2.51-5.26-3.74-7.92-3.46-7.5-8.3-14.26-12.05-21.6-2.67-5.23-10.4-4.71-13.21,0-4.9,8.22-10.89,15.86-15.21,24.42-2.37,4.68-3.93,9.68-5.87,14.54-.49,1.23.13-.3.2-.45-.14.3-.26.61-.39.91-.27.61-.53,1.21-.8,1.81-.58,1.27-1.17,2.54-1.78,3.8-1.19,2.46-2.44,4.89-3.71,7.31-3,5.66-6.09,11.25-9,16.94l6.61-3.79c-21.66,1.41-43.43,2-64.81,6-3.75.7-7.52,1.42-11.2,2.42C1.79,78.64-1,83.09.31,87a7.79,7.79,0,0,0,9.41,5.35Z"/></g></g></svg>