<svg xmlns="http://www.w3.org/2000/svg" viewBox="0 0 214.51 245.97"><g id="Warstwa_2" data-name="Warstwa 2"><g id="Layer_1" data-name="Layer 1"><path d="M106.54,0c-12-.35-24.3,4.35-34.37,10.46A65.32,65.32,0,0,0,57.91,21.86,51.25,51.25,0,0,0,47.46,40.08a59.34,59.34,0,0,0,1.2,41.33c5.15,12.72,13.47,25,25.43,32.1,10.31,6.16,22.72,8.72,34.65,8.44s24.49-3.24,34.92-9.41a34,34,0,0,0,12-11.48c2.57-4.28,4-9.18,5.53-13.91.86-2.73,1.84-5.42,2.72-8.14a56.1,56.1,0,0,0-.65-34.7c-5-14.25-16.49-24.47-28.57-32.87a53.58,53.58,0,0,0-15-7.28c-5.74-1.78-12.13-3-18.15-2.45a25.54,25.54,0,0,0-9.73,2.63A7.7,7.7,0,0,0,89,14.8a7.82,7.82,0,0,0,10.46,2.75c.7-.36,1.84-.52-.53.18.38-.11.75-.26,1.13-.37a18.84,18.84,0,0,1,2.46-.51l-2,.27a33.3,33.3,0,0,1,8.52.14L107,17a54.75,54.75,0,0,1,12.08,3.12l1.31.53c-2.41-.94-.85-.36-.27-.09.86.4,1.71.82,2.53,1.29a54.68,54.68,0,0,1,4.65,3.05c.93.66,1.87,1.33,2.79,2,.46.34.91.73,1.4,1.05-2-1.3.05.05.55.45,1.92,1.54,3.79,3.15,5.59,4.85a69.1,69.1,0,0,1,5.08,5.33c.38.45.75.9,1.12,1.36s.46,1-.4-.51c.14.23.36.48.52.69.72,1,1.39,2,2,3s1.3,2.31,1.88,3.51c.43.88-.35-.22-.22-.55-.08.18.37,1,.44,1.13.26.68.5,1.36.73,2a51.62,51.62,0,0,1,2.06,8.93l-.27-2a50.56,50.56,0,0,1,0,12.89l.27-2c-.73,5.34-2.66,10.28-4.27,15.39-.58,1.84-1.15,3.69-1.78,5.52-.28.83-.58,1.66-.91,2.48l-.21.53c-.39,1,.49-1.14.44-1-.24.44-.41.93-.63,1.39-.35.69-.71,1.37-1.11,2-.21.35-.43.69-.66,1-.41.6-1.71,2,.13-.1A38,38,0,0,1,138.1,98c1.92-1.67.78-.6.23-.21s-1,.66-1.45,1c-1,.61-2,1.17-3,1.7s-2.13,1.07-3.21,1.55l-.64.29c-1.23.55,1.6-.65.7-.3l-1.63.65a67.55,67.55,0,0,1-14.61,3.66l2-.28a69.18,69.18,0,0,1-18.24.06l2,.27a57.82,57.82,0,0,1-12.17-3c-.46-.16-.91-.34-1.36-.52-1.74-.69,1.27.58.15.07S85,102,84,101.54a45,45,0,0,1-5.21-3.21c-.52-.37-1.8-1.49.11.12l-1.12-.91c-.83-.7-1.63-1.43-2.4-2.2S74,94,73.4,93.22l-1.15-1.35-.58-.73c-.38-.47-.94-1.62,0,.09-.6-1-1.48-2-2.17-3s-1.43-2.14-2.1-3.24a64.82,64.82,0,0,1-3.59-6.67l-.37-.81c-.49-1.11-.07-.11.17.42-.3-.66-.56-1.35-.81-2-.48-1.29-.92-2.59-1.31-3.91a54.41,54.41,0,0,1-1.76-8.18l.27,2a52,52,0,0,1,0-13.76c-.09.68-.19,1.35-.28,2a53.3,53.3,0,0,1,1.59-7.38c.34-1.17.72-2.33,1.14-3.47.22-.59.45-1.16.67-1.74.48-1.22-.14.44-.22.53a5.47,5.47,0,0,0,.58-1.3,38.53,38.53,0,0,1,3.29-5.84c.13-.19.27-.37.4-.55.66-.94-.58.74-.57.72A7,7,0,0,1,67.55,34c.7-.82,1.42-1.61,2.17-2.38a52.67,52.67,0,0,1,4.71-4.25,3.21,3.21,0,0,0,.59-.47s-1.59,1.19-.63.49l1.25-.91c1-.68,1.92-1.34,2.91-2q2.74-1.75,5.64-3.24c1-.51,2-1,3-1.47l1.43-.64c.47-.2,1.31-.45-.75.31.31-.11.6-.24.9-.36a59.31,59.31,0,0,1,13.64-3.73l-2,.27a38.51,38.51,0,0,1,6.16-.35,7.7,7.7,0,0,0,7.64-7.64A7.79,7.79,0,0,0,106.54,0Z"/><path d="M36,107c-10,4.91-17.59,14.36-23,23.89A97.72,97.72,0,0,0,1.85,162.29,120.51,120.51,0,0,0,.36,184.17c.08,6.49.34,13,0,19.45C0,209.77-.38,215.86.86,222a26,26,0,0,0,10.46,15.91c4,2.93,9.11,4.59,13.91,5.69a101.94,101.94,0,0,0,17,2.23c11.54.65,23-.58,34.56-.84,14.28-.33,28.58-.18,42.86-.18,10.64,0,21.29.19,31.92-.18,8.3-.28,16.6-.72,24.88-1.27,3.56-.23,7.12-.48,10.67-.81a59.14,59.14,0,0,0,8.19-1c2.63-.63,5.5-2.78,6-5.61l-7.38,5.62c4.84-.6,9.38-2.28,12.65-6.1a29.08,29.08,0,0,0,6-12c2.23-8.81,2.1-18.2,1.59-27.21-.42-7.37-1.46-14.73-1.69-22.11a85.11,85.11,0,0,0-8.74-36.1c-6.31-12.45-16.47-22.66-28.37-29.84-3.42-2.07-8.55-.88-10.46,2.74a7.79,7.79,0,0,0,2.74,10.46c1.76,1.07,3.49,2.19,5.16,3.39l1.3,1c1,.76-1.39-1.1-.12-.1.82.66,1.64,1.34,2.43,2a66.9,66.9,0,0,1,8.16,8.5l.35.45c.58.72-1.05-1.38-.5-.64l.79,1.07c.59.82,1.17,1.65,1.72,2.49,1,1.58,2,3.21,2.89,4.87.45.84.88,1.68,1.29,2.53.19.4.38.8.56,1.2s.94,2.16.38.82.06.16.19.49l.48,1.25c.36.95.69,1.91,1,2.88a76.32,76.32,0,0,1,3,13.11l-.27-2c.88,6.57.94,13.27,1.53,19.88.6,6.77,1.16,13.56,1.19,20.36a85.51,85.51,0,0,1-.66,11.54l.27-2a43.56,43.56,0,0,1-1.27,6.19c-.28.92-.62,1.81-.95,2.72,1-2.78.45-1.06.1-.37-.21.43-.44.84-.69,1.25s-.46.71-.7,1.07c-.69,1,1.22-1.48.69-.89-.14.15-.27.32-.4.47a11.63,11.63,0,0,1-.86.86l-.45.39c-.58.53,1.92-1.36.91-.71-.34.21-.66.43-1,.63l-.53.27c-1.08.56,1.84-.69,1.08-.45a17.37,17.37,0,0,1-2.58.64l2-.28-.22,0a8.71,8.71,0,0,0-4.63,1.64,7,7,0,0,0-2.74,4,7.59,7.59,0,0,1,3.39-4.46c5.95-3.45,2.15-.79,1.65-.71-.16,0-.32.09-.48.12-.53.12-1.07.19-1.6.26l2-.28c-6.68.88-13.45,1.21-20.17,1.61-7.82.46-15.65.86-23.49,1.06-11.89.29-23.81.06-35.7.06-14.08,0-28.17-.15-42.25.39-6.43.24-12.84.84-19.28.85a126.88,126.88,0,0,1-16.77-1l2,.27a69.74,69.74,0,0,1-8.73-1.7c-1.33-.36-2.65-.77-3.94-1.26l-.93-.36c2.37.86,1.19.51.64.25s-1.12-.53-1.67-.84-1-.59-1.54-.92c-.25-.16-.48-.33-.72-.5-.95-.66,1.56,1.31.66.5-.52-.46-1-.93-1.51-1.44a4.87,4.87,0,0,1-.79-.91l.71.92c-.16-.21-.31-.42-.45-.64a17.12,17.12,0,0,1-1.15-2c-.14-.29-.62-1.39-.08-.13s0,0-.09-.32A25.66,25.66,0,0,1,15.29,216l.27,2c-1-7.73.36-15.63.28-23.4-.1-9.25-.59-18.5.64-27.69l-.27,2a91.53,91.53,0,0,1,2.72-12.77q.84-2.89,1.87-5.73c.33-.92.68-1.82,1-2.72a5.75,5.75,0,0,0,.59-1.45c0-.08-.7,1.63-.39.92.14-.3.26-.61.4-.91a85,85,0,0,1,5.86-11c.53-.83,1.07-1.65,1.63-2.46.29-.43.59-.85.9-1.27l.46-.63c.19-.24.93-1.21.11-.15s.15-.18.36-.43.64-.78,1-1.16c.65-.76,1.33-1.51,2-2.23s1.56-1.57,2.39-2.3c.41-.37.82-.72,1.24-1.07.18-.15.38-.3.56-.46.62-.54-1.67,1.23-.56.44a37.59,37.59,0,0,1,5.35-3.28c3.6-1.76,4.87-7.17,2.74-10.46A7.85,7.85,0,0,0,36,107Z"/></g></g></svg>