<svg xmlns="http://www.w3.org/2000/svg" viewBox="0 0 213.08 203.85"><g id="Warstwa_2" data-name="Warstwa 2"><g id="Layer_1" data-name="Layer 1"><path d="M7.65,48.09c12.06,1.18,24.22.71,36.3.32,12.4-.39,24.77-.23,37.18,0,27.43.4,54.79-1.92,82.22-1.91,14,0,28.11.1,42.08,1.64a7.65,7.65,0,0,0,5.41-2.24,7.84,7.84,0,0,0,2.24-5.41A7.75,7.75,0,0,0,210.84,35a8.82,8.82,0,0,0-5.41-2.24,353.55,353.55,0,0,0-37.81-1.63q-20.16-.06-40.3.78c-13.68.56-27.32,1.31-41,1.19C73.66,33,61,32.6,48.37,33c-13.55.4-27.19,1.14-40.72-.19A7.63,7.63,0,0,0,2.25,35,7.74,7.74,0,0,0,0,40.44c.2,4.48,3.36,7.23,7.64,7.65Z"/><path d="M23,42.08c-.83,7.58-1.07,15.18-1.18,22.8-.11,7.3-.86,14.59-.82,21.89,0,8.37.36,16.72.36,25.09s-.28,16.64.1,24.93c.14,3.17.53,6.3.93,9.45.47,3.72.41,7.48.91,11.18l-.27-2c.53,4.2.41,8.49.58,12.72.09,2.39.22,4.79.49,7.17a34.78,34.78,0,0,0,1.38,7.5c3.49,9.87,12.91,15.13,22.69,17.15,9.23,1.92,18.68,1.86,28.06,2.08,12.84.29,25.66,1.14,38.5,1.49,12.43.34,24.88.4,37.32.34,3.9,0,7.82-.07,11.7-.46a38.33,38.33,0,0,0,10-2,25.12,25.12,0,0,0,8.88-5.53,34,34,0,0,0,5.73-7.88,60.14,60.14,0,0,0,5.25-12.44,87.34,87.34,0,0,0,2.6-16.87c.75-10.23.28-20.47.26-30.71,0-14.12,0-28.25-1.3-42.32-.37-4-.87-8-1.44-12,.09.68.18,1.36.28,2-1.5-12.29,0-24.57,0-36.88,0-4-3.53-7.83-7.65-7.65a7.79,7.79,0,0,0-7.65,7.65c0,6.48-.45,12.94-.65,19.42a127.21,127.21,0,0,0,1.15,21.1c-.1-.67-.19-1.35-.28-2,1.75,13.19,2.14,26.51,2.22,39.8.06,10.28.3,20.58.18,30.86A143.48,143.48,0,0,1,180.21,165l.27-2a55.45,55.45,0,0,1-2.67,11.58c-.13.36-.28.72-.41,1.08.85-2.42.41-1,.12-.34s-.67,1.44-1,2.15c-.58,1.21-1.19,2.41-1.85,3.57a31.69,31.69,0,0,1-1.83,2.87c-.4.56-1.22,1.43.61-.76-.15.17-.28.35-.42.52-.34.4-.69.79-1.06,1.16a13.83,13.83,0,0,1-1,1l-.47.39c-.13.11,2-1.42.78-.63a21.25,21.25,0,0,1-2.5,1.43c-1.06.52,2.17-.85.91-.38l-.78.29c-.55.18-1.1.35-1.66.49a34,34,0,0,1-3.88.74l2-.27a119.67,119.67,0,0,1-15.49.66c-8.07,0-16.14,0-24.21-.12-9.46-.13-18.91-.45-28.37-.83-7.64-.31-15.28-.79-22.93-.93a174.59,174.59,0,0,1-19.93-1l2,.27a53.45,53.45,0,0,1-8-1.65c-.6-.18-1.19-.37-1.78-.58l-.86-.32c-1.55-.61,1.15.53.57.25a33.15,33.15,0,0,1-3.22-1.72c-.66-.43-2.16-1.8-.06,0-.42-.37-.85-.72-1.25-1.11s-.82-.88-1.23-1.33,1.3,1.84.52.66l-.54-.82c-.3-.49-.53-1-.81-1.51,1.29,2.33.42,1,.17.18a26.62,26.62,0,0,1-.75-3.76l.27,2c-1-7.67-.45-15.44-1.5-23.11.1.68.19,1.35.28,2,0-5.57-1.07-11-1.44-16.55-.55-8.15-.2-16.41-.2-24.57s-.14-16.15-.32-24.23c-.17-7.54.6-15,.73-22.57.16-8.42.31-16.8,1.23-25.17A7.64,7.64,0,0,0,36,36.67a7.65,7.65,0,0,0-10.82,0A8.79,8.79,0,0,0,23,42.08Z"/><path d="M74.31,37.16c-.54-5.92-1.3-12-.51-18l-.27,2a21.91,21.91,0,0,1,1-4c.4-1.18-1,2-.27.67.14-.27.27-.53.43-.79s.32-.49.48-.74c.46-.73-.87,1.08-.8,1A2.78,2.78,0,0,0,74.7,17c.2-.22.41-.42.63-.62s.23-.19.33-.29c.48-.48-1.6,1.12-1,.78s1.14-.69,1.73-1c.78-.43-1.16.47-1.14.47s.35-.14.48-.18c.34-.11.67-.23,1-.33a20.71,20.71,0,0,1,2.58-.53l-2,.28a60.49,60.49,0,0,1,8.3-.26q4.65,0,9.31,0c6.66.06,13.33.19,20,.56,3.11.17,6.22.39,9.3.8l-2-.27c2.26.31,4.53.57,6.8.87l-2-.28a26.77,26.77,0,0,1,5.46,1.21c.33.12,1.25.5-.1-.06s-.53-.23-.25-.09.69.36,1,.56.88.74,1.12.74c-.06,0-1.56-1.28-.81-.63l.61.53c.77.68,1.43,1.45,2.16,2.17s-1-1.56-.18-.24c.24.38.4.81.64,1.19.4.65-.6-1.69-.4-.93,0,.21.15.42.22.63q.24.73.42,1.5c.27,1.08.45,2.17.61,3.26l-.27-2a82.7,82.7,0,0,1,.52,10.67c0,4,3.52,7.83,7.65,7.65A7.79,7.79,0,0,0,153,35.52a82.41,82.41,0,0,0-.48-10.3c-.53-4.25-1.22-8.87-3.84-12.41a25.35,25.35,0,0,0-9.58-8.22c-4.31-1.92-8.73-2.47-13.42-2.94l2,.27a149.63,149.63,0,0,0-19-1.57C101.94.11,95.19,0,88.45,0S75.19-.29,69,2.5C63.63,4.92,60.06,10.33,59,16c-1.34,7-.6,14.12,0,21.16a8.24,8.24,0,0,0,2.24,5.41,7.83,7.83,0,0,0,5.41,2.24c3.83-.17,8-3.38,7.65-7.65Z"/><path d="M72.79,93.71h0l-2,.27h0l-2-.27A7.56,7.56,0,0,1,64,89.45c-.82-1.94-.33-1-.3-.63s.11.55.15.83l-.27-2c.34,2.69.37,5.43.44,8.14.1,4.31.13,8.62.15,12.93,0,9.16,0,18.31-.13,27.47,0,3.06-.07,6.12-.07,9.18,0,4,3.52,7.83,7.65,7.64a7.77,7.77,0,0,0,7.64-7.64c0-8.18.15-16.35.19-24.52,0-9.8.18-19.63-.29-29.42a49.67,49.67,0,0,0-.6-6.08,8,8,0,0,0-3.81-5.58,7.46,7.46,0,0,0-6-.78,8.34,8.34,0,0,0-4.57,3.51,7.82,7.82,0,0,0-.77,5.89c1.17,3.62,5.42,6.9,9.41,5.35Z"/><path d="M101.62,74c0,20.65-.09,41.31-.77,62q-.34,10.41-.86,20.82a7.7,7.7,0,0,0,7.64,7.65,7.82,7.82,0,0,0,7.65-7.65c1.11-22.19,1.55-44.4,1.62-66.61q0-8.08,0-16.16c0-4-3.52-7.83-7.65-7.65A7.79,7.79,0,0,0,101.62,74Z"/><path d="M137.68,83.87c0,20.5-1.62,41-1.64,61.47,0,4,3.52,7.83,7.65,7.64a7.77,7.77,0,0,0,7.65-7.64c0-20.5,1.63-41,1.64-61.47,0-4-3.52-7.83-7.65-7.65a7.8,7.8,0,0,0-7.65,7.65Z"/></g></g></svg>