<svg xmlns="http://www.w3.org/2000/svg" viewBox="0 0 222.19 181.82"><g id="Warstwa_2" data-name="Warstwa 2"><g id="Layer_1" data-name="Layer 1"><path d="M22.87,15.3c22.84,0,45.65,1.16,68.44,2.49a292.36,292.36,0,0,0,31.47.09c10.85-.53,21.68-1.38,32.53-1.82,12.22-.5,24.51-.48,36.65,1.15l-2-.27a116.46,116.46,0,0,1,16,3.3l-4.58-3.52a26.66,26.66,0,0,1,2,3.51c.17.36.33.73.5,1.09-1.1-2.35-.54-1.27-.31-.7.28.73.54,1.46.77,2.2a54.73,54.73,0,0,1,2,9.29c-.1-.68-.19-1.35-.28-2,2.16,16.56-.39,33.25-.67,49.85-.09,5.73.17,11.49.32,17.22.18,7,.34,14.09.29,21.13a203.36,203.36,0,0,1-1.51,25.4l.27-2A89.25,89.25,0,0,1,203,151c-.34,1.38-.72,2.74-1.17,4.09-.2.61-.42,1.22-.65,1.83l-.37.93a11.77,11.77,0,0,0,.53-1.26,5,5,0,0,0-.29.66,26.86,26.86,0,0,1-1.69,3.12L199,161l-.25.35c-.5.77.94-1.16.82-1.05-.39.36-.69.84-1.06,1.22s-1.72,1.49-.39.47.21-.17-.08,0-.62.4-.93.59c-.5.31-1,.59-1.54.85l-.93.44c-1.47.7,1.77-.67.5-.21a46.76,46.76,0,0,1-10,2.4l2-.27c-8.21,1.06-16.55.74-24.78.1-8.6-.66-17.17-1.76-25.74-2.77a167.76,167.76,0,0,0-21.94-1.48c-11.67.16-23.3,1.09-34.95,1.71-12.72.67-25.56,1.1-38.22-.56l2,.28a55.49,55.49,0,0,1-12.09-2.75c-.36-.14-.71-.29-1.07-.42,2.46.91,1,.41.36.13s-1.48-.72-2.2-1.12-1.29-.75-1.92-1.15-3-2.34-.67-.41a35,35,0,0,1-3.17-2.92c-.47-.5-.9-1-1.34-1.55-.72-.86,1.29,1.79.37.48-.2-.3-.42-.59-.62-.89a31.89,31.89,0,0,1-2.17-3.76c-.14-.29-.28-.58-.41-.87s-.15-.33-.23-.5c-.32-.69.59,1.44.5,1.2-.25-.74-.58-1.47-.83-2.21a51.25,51.25,0,0,1-2.3-10l.27,2c-2-15.09.28-30.43,1.12-45.53.64-11.59-.11-23.19,0-34.79a179.36,179.36,0,0,1,1.38-21.6l-.27,2a67.92,67.92,0,0,1,3.56-15.14l.28-.72c.48-1.24-.81,1.82-.39.92.25-.55.49-1.1.77-1.64a26.33,26.33,0,0,1,1.56-2.73c.26-.39,1.36-1.86.3-.48s.15-.16.48-.52.59-.61.9-.9c.8-.74,1.9-1.3-.24.11.42-.27.82-.57,1.25-.82l.7-.37.31-.15c.87-.46-1.31.52-1.26.52a7.15,7.15,0,0,0,1.52-.51,14.78,14.78,0,0,1,1.61-.32l-2,.27A16.83,16.83,0,0,1,32,16l-2-.28a26.8,26.8,0,0,1,6.49,1.88c1.7.71,4.39.11,5.9-.77a7.81,7.81,0,0,0,3.51-4.57,7.74,7.74,0,0,0-.77-5.9,9,9,0,0,0-4.57-3.51A26.06,26.06,0,0,0,27.74.69a21.81,21.81,0,0,0-13,5.95c-6.15,5.9-8.92,14.83-10.44,23A168.43,168.43,0,0,0,1.92,58.86c-.08,7.8.22,15.58.27,23.37C2.25,93,1,103.62.41,114.31c-.65,11-.87,22.51,2.06,33.26S12.24,168,22.5,173c7,3.38,14.3,4.65,22,5.47a181.81,181.81,0,0,0,24,.68c16.44-.46,32.84-2.21,49.3-2.21,10.67,0,21.34,1.85,31.92,3,11.85,1.34,24,2.61,35.9,1.32,6.08-.65,11.89-1.81,17.42-4.52a23.78,23.78,0,0,0,10.36-10c5.26-9.56,6.5-21.15,7.29-31.84.82-11,.7-22.15.44-33.21-.22-9.25-.66-18.51-.23-27.75.58-12.63,1.85-25.3,1-38-.41-6.27-1.18-12.76-3.34-18.7a35.76,35.76,0,0,0-4-8.16,8.45,8.45,0,0,0-3.73-3.25,19,19,0,0,0-2.31-.77c-1-.27-2-.53-3-.77q-2.93-.69-5.88-1.24c-16.87-3.09-34-2.92-51.07-2-16.34.87-32.71,2.4-49.09,1.85C91.3,2.66,83.05,2,74.81,1.58,66,1.12,57.19.72,48.37.44,39.87.17,31.37,0,22.87,0c-4,0-7.83,3.52-7.64,7.65a7.79,7.79,0,0,0,7.64,7.65Z"/><path d="M19.05,144.46a81.77,81.77,0,0,1,6.62-10.8c.6-.85,1.22-1.69,1.85-2.52.17-.23.35-.45.51-.68-1.19,1.69-.71.92-.41.54l1.19-1.5q2.27-2.81,4.65-5.5a212.72,212.72,0,0,1,20.09-19.74q2.73-2.37,5.55-4.65c.88-.72,1.78-1.43,2.67-2.14l.59-.45c.72-.56-1.52,1.16-.54.42l1.41-1.07-5.89.77c.14.06-1.72-.75-1-.41l.52.23,1.21.57c.77.37,1.52.75,2.28,1.14,1.62.86,3.22,1.79,4.78,2.76,3.2,2,6.24,4.16,9.25,6.41.66.5-.73-.56-.67-.52l.52.41c.41.32.82.64,1.22,1q1.14.9,2.25,1.83c1.54,1.27,3.06,2.58,4.55,3.9q4.17,3.7,8.13,7.64t7.87,8.29c2.67,3,8.13,2.93,10.81,0a7.81,7.81,0,0,0,0-10.81,190.72,190.72,0,0,0-17.66-17.39C84.43,96.09,77,90.27,68.8,85.84c-1.7-.92-3.45-1.77-5.23-2.54a9.29,9.29,0,0,0-5.22-1A7.06,7.06,0,0,0,55,83.58c-1.19.9-2.38,1.82-3.55,2.74-3.17,2.46-6.27,5-9.3,7.67a213.82,213.82,0,0,0-19,18.7c-6.53,7.33-12.8,15.24-17.24,24.05-1.79,3.56-1.06,8.45,2.75,10.46,3.47,1.84,8.54,1.07,10.46-2.74Z"/><path d="M88,156.32c8.31-4.8,14.76-11.7,20.21-19.5,4.73-6.76,8.6-14.08,13.17-20.94a34.25,34.25,0,0,1,3.79-5.33s-1.2,1.53-.44.57l.39-.49c.33-.4.65-.82,1-1.2s.92-.93,1.38-1.39c2.29-2.32,4.57-4.66,6.87-7a215.13,215.13,0,0,1,17-15.75,9.61,9.61,0,0,1,1.23-1c.16-.09-1.5,1.15-.87.67.23-.16.45-.34.67-.5.78-.58,1.57-1.15,2.37-1.7a39.34,39.34,0,0,1,4.28-2.56,7.26,7.26,0,0,0,1-.47c.06,0-2.06.73-1.17.5.22-.06.44-.15.66-.22,1.08-.34,2.16-.68,3.23-1a20.84,20.84,0,0,1,2.93-1l-2,.27a1,1,0,0,1,.24,0l-2-.27a7.29,7.29,0,0,1-5-5,3.9,3.9,0,0,0,.17.48,16.3,16.3,0,0,0,1.46,3.14,26.08,26.08,0,0,0,8.16,7.41,17.64,17.64,0,0,0,2.72,1.32c-2.12-.9-.57-.24-.15,0,.82.4,1.62.83,2.42,1.28,1.59.92,3.12,1.93,4.64,2.94a63.83,63.83,0,0,0,11.34,6.24l-4.57-3.51c6.62,9.79,16.49,17.11,26.2,23.6,3.34,2.23,8.62.76,10.47-2.75A7.83,7.83,0,0,0,217,102.71c-1.37-.92-2.74-1.85-4.09-2.81-.72-.51-1.43-1-2.14-1.55l-1.08-.8c-.43-.32-2-1.74-.26-.19-2.74-2.46-5.7-4.62-8.32-7.21-1.25-1.23-2.45-2.51-3.57-3.85-.26-.31-.51-.67-.79-1,1.51,1.62.56.73.21.25-.23-.33-.44-.66-.67-1a7.68,7.68,0,0,0-2.75-2.74q-3.23-1.36-.84-.36a15.56,15.56,0,0,0-2-1c-.81-.43-1.6-.88-2.38-1.36-1.7-1-3.34-2.16-5-3.26s-3.07-2-4.68-2.88c-.67-.37-1.35-.71-2-1a20.45,20.45,0,0,0-2.66-1.14c2,.51.3-.08-.3-.47l-1.07-.75c-1.24-.86,1.42,1.2.36.27-.45-.39-.9-.78-1.32-1.21-.17-.18-.32-.37-.49-.54-.76-.79,1.21,1.8.7.9-.17-.3-.36-.61-.53-.92-.43-.74.95,2.42.5,1.16l-.12-.33c-1-2.69-2.73-4.84-5.64-5.62-2.58-.7-4.85.15-7.23.95a49.81,49.81,0,0,0-8.69,3.46,53.35,53.35,0,0,0-6.16,4.18A172.72,172.72,0,0,0,129,84.85c-4,3.83-7.83,7.77-11.7,11.71a88.46,88.46,0,0,0-11.58,15.34c-3.86,6.17-7.38,12.57-11.67,18.47l-.69.95c-1.21,1.61.83-1,0,0-.57.71-1.14,1.42-1.74,2.11-1.11,1.3-2.27,2.55-3.5,3.74-.66.64-1.34,1.27-2,1.88l-.92.78c-.47.39-2.06,1.35,0,.06-1.64,1-3.18,2.23-4.88,3.22-3.46,2-5,7-2.74,10.46A7.79,7.79,0,0,0,88,156.32Z"/><path d="M116.77,55.79,113.39,58c-.09.06-.49.24-.51.34,0-.15,2.21-.81,1-.5-.34.09-.68.21-1,.3a34.82,34.82,0,0,1-4.41.9l2-.28a29.56,29.56,0,0,1-7.22.05l2,.27a25.48,25.48,0,0,1-4.87-1.2c-1.3-.47,1.6.82.29.11-.37-.2-.75-.37-1.11-.58-.57-.32-2.89-2-.92-.47l2,3.38c-.21-1-.39-1.94-.53-2.92l.27,2a25.07,25.07,0,0,1-.09-6.12l-.27,2a16.76,16.76,0,0,1,.43-2.2c.09-.32.18-.64.29-.95s.13-.34.18-.51c.26-.78-.93,2-.48,1.15a15.77,15.77,0,0,1,.91-1.66c.09-.13.19-.26.27-.39.45-.71-1,1.19-.85,1.09s.4-.48.61-.69a7.94,7.94,0,0,1,.59-.57l.34-.29c.51-.49-1.16.87-1.13.87.28,0,1.13-.72,1.42-.87l.39-.19c.83-.43-2,.78-1.27.54l.74-.26a10.59,10.59,0,0,1,1.69-.37l-2,.27a12.77,12.77,0,0,1,3.15,0l-2-.28a14,14,0,0,1,2,.44c.32.1.63.22,1,.33.93.32-2.08-1-1.15-.49l.42.2a15.17,15.17,0,0,1,1.85,1.12c1.14.76-1.65-1.41-.63-.49.29.27.58.52.86.8s.5.54.75.81c1.07,1.22-1.19-1.7-.38-.49a18.31,18.31,0,0,1,1.19,2c.09.19.18.4.28.59-1.2-2.26-.67-1.65-.43-1,.13.36.26.72.37,1.08a20.13,20.13,0,0,1,.62,2.85c-.09-.67-.19-1.35-.28-2a24.26,24.26,0,0,1,0,6.37l.27-2c-.14,1-.32,1.88-.53,2.81l7.37-5.61H108.9c-4,0-7.83,3.52-7.65,7.65a7.79,7.79,0,0,0,7.65,7.65h7.82A7.78,7.78,0,0,0,124.1,67c1.73-7.47,1.53-16-3-22.53A21.48,21.48,0,0,0,103.93,35a18.36,18.36,0,0,0-16.35,9.47,24.36,24.36,0,0,0-2.75,11.26,38.2,38.2,0,0,0,.69,6.92,8.9,8.9,0,0,0,2.67,5.45,21.12,21.12,0,0,0,4.42,3c6.53,3.31,13.6,3.78,20.73,2.64,2.58-.41,5.58-1,7.77-2.45L124.49,69c3.32-2.22,5.07-6.86,2.74-10.47-2.13-3.31-6.9-5.12-10.46-2.74Z"/></g></g></svg>