<svg xmlns="http://www.w3.org/2000/svg" viewBox="0 0 231.27 229.24"><g id="Warstwa_2" data-name="Warstwa 2"><g id="Layer_1" data-name="Layer 1"><path d="M125.63,4.16c-20.08-1.37-39.11,7.26-53.07,21.41C59,39.29,49.78,57.35,45,75.93c-4.87,18.87-5.42,39.83,1.7,58.22a74.86,74.86,0,0,0,36,40.29c17,8.85,36.69,12,55.72,10.42a103.17,103.17,0,0,0,30.72-6.94,106.52,106.52,0,0,0,28.63-17.37C213.74,147,226,127.77,229.81,107a82.87,82.87,0,0,0-.53-33.53A91.82,91.82,0,0,0,197.4,22.81,104.79,104.79,0,0,0,170.84,7.49C152,0,131.31-1.55,111.4,1.42a113.75,113.75,0,0,0-14,3C93.52,5.52,90.76,9.9,92,13.85a7.79,7.79,0,0,0,9.41,5.34,114.69,114.69,0,0,1,15.67-3.25l-2,.27a111.73,111.73,0,0,1,29.4,0l-2-.27a104,104,0,0,1,21.37,5.21q1.23.45,2.46.93l1.14.46a4.64,4.64,0,0,1,.65.26c-.25-.16-1.85-.8-.69-.29,1.65.73,3.29,1.48,4.91,2.29a93.21,93.21,0,0,1,9.36,5.37c1.46,1,2.88,2,4.28,3A12.93,12.93,0,0,1,187,34s-1.63-1.28-.73-.56l.41.33c.73.57,1.44,1.16,2.15,1.77A83.57,83.57,0,0,1,196.65,43q1.83,2,3.53,4.14c.22.28,1.14,1.45.28.34s.19.26.36.49q.85,1.14,1.65,2.31a83.3,83.3,0,0,1,5.64,9.43c.5,1,1,2,1.45,3l.61,1.35.3.68c.57,1.29-.59-1.42-.27-.63.83,2,1.61,4.09,2.3,6.18a76,76,0,0,1,3.15,13.46l-.27-2a74.52,74.52,0,0,1,0,19.51l.27-2a77.73,77.73,0,0,1-2.28,10.89c-.5,1.75-1.07,3.48-1.69,5.2-.32.88-.66,1.77-1,2.64-.22.54-.88,2,.12-.26-.2.46-.39.93-.6,1.39a86.13,86.13,0,0,1-5.22,9.87c-1,1.56-2,3.1-3,4.6-.52.73-1,1.45-1.57,2.17-.34.45-1.54,1.94,0,0-.32.4-.63.81-1,1.2a93.73,93.73,0,0,1-7.46,8.22q-2.07,2-4.24,3.91c-.68.59-1.37,1.17-2.06,1.74l-1.05.84-.6.48c-.72.58,1.37-1,.63-.49a97.2,97.2,0,0,1-19.55,11.56l-.71.31c-.85.37,1.63-.67.76-.32l-1.61.65c-1,.37-1.93.73-2.9,1.07q-3,1.06-6.08,1.9a97.73,97.73,0,0,1-12.46,2.48l2-.27a109.52,109.52,0,0,1-29.05.11l2,.27a92.19,92.19,0,0,1-18.53-4.46l-2.14-.8-1.06-.42-.45-.19c-1.22-.49,1.51.67.78.33-1.42-.64-2.85-1.26-4.24-2a73.79,73.79,0,0,1-7.86-4.53c-1.23-.81-2.43-1.67-3.61-2.55s1.33,1.05.43.33l-.86-.68c-.61-.5-1.21-1-1.81-1.52a67.32,67.32,0,0,1-6.34-6.3c-.45-.52-.89-1-1.32-1.56-.24-.28-.47-.57-.7-.86l-.39-.49c-.55-.68,1.13,1.5.62.79-.91-1.24-1.81-2.47-2.65-3.76a64.87,64.87,0,0,1-4.48-8c-.19-.4-.37-.79-.55-1.19s-.78-1.82-.2-.45,0-.1-.18-.47-.33-.83-.48-1.24c-.64-1.69-1.2-3.41-1.7-5.14a78.28,78.28,0,0,1-2.33-11.23l.27,2a93.43,93.43,0,0,1,.12-24.21c-.1.68-.19,1.36-.28,2a112.18,112.18,0,0,1,4.7-20.22q.82-2.47,1.75-4.91.46-1.22,1-2.43c.14-.34.71-1.71.16-.38s.16-.37.3-.69q2.16-4.89,4.78-9.55a99.8,99.8,0,0,1,5.68-9c.5-.7,1-1.4,1.53-2.09L77.5,43c.47-.64-.76,1-.67.86a10.08,10.08,0,0,1,1-1.21c1.11-1.38,2.26-2.73,3.46-4a77.51,77.51,0,0,1,7.46-7.15c.6-.5,1.22-1,1.83-1.48s-1.47,1.11-.75.58l.53-.4,1.08-.79c1.41-1,2.85-1.94,4.33-2.83s3.27-1.86,5-2.68l1.36-.63.46-.2c1.21-.55-1.52.61-.76.31s1.76-.7,2.65-1a57,57,0,0,1,11.51-2.79l-2,.27a59.72,59.72,0,0,1,11.73-.34c4,.27,7.82-3.71,7.65-7.65a7.85,7.85,0,0,0-7.65-7.65Z"/><path d="M79.23,145.06c-1.47-.82,1.21,1.19.33.28,1.51,1.55,1.07,1.45.72.88A8.94,8.94,0,0,0,77,143a9.89,9.89,0,0,0-4.88-1.18,8.65,8.65,0,0,0-6.34,3.32q-3.28,3.82-6.5,7.7c-4.4,5.28-8.75,10.61-13.11,15.92-8.81,10.73-17.7,21.41-27.29,31.47C13.55,205.8,8,211.15,2.22,216.18L13,227c-1.15.8-1.39,1-.72.62-1.29.52-1.56.64-.82.37l1.05-.36a14.24,14.24,0,0,0,4.86-2.82c3-2.64,2.9-8.15,0-10.82a7.86,7.86,0,0,0-10.82,0c1.15-.8,1.39-1,.72-.62,1.29-.51,1.56-.64.82-.37-.35.11-.7.23-1,.36a14.35,14.35,0,0,0-4.87,2.82c-3,2.64-2.9,8.15,0,10.82A7.86,7.86,0,0,0,13,227c19.1-16.54,34.88-36.43,50.86-55.88,4.48-5.45,9-10.89,13.6-16.23l-5.41,2.24h.42l-2-.27c.85.16.5-.1-1-.78A4.26,4.26,0,0,1,67.13,154c.52.62.89,1.28,1.45,1.93a10.65,10.65,0,0,0,2.93,2.32c3.5,1.94,8.51,1,10.46-2.75s1-8.38-2.74-10.46Z"/><path d="M3.77,175.75a38.09,38.09,0,0,1,4.46,2.88c.37.26.73.54,1.09.82-2.36-1.78-.51-.4,0,0,.86.7,1.71,1.42,2.55,2.15,3.74,3.28,7.28,6.79,10.7,10.4,3.7,3.89,7.26,7.91,10.71,12q2.55,3,5,6.13c.36.45.72.9,1.07,1.36l.64.81-.58-.75c.86,1,1.6,2.09,2.37,3.13a117.94,117.94,0,0,1,7.28,10.71c2,3.45,7,5,10.46,2.74a7.79,7.79,0,0,0,2.75-10.46c-4.75-8.11-10.8-15.57-16.77-22.8a213.91,213.91,0,0,0-21.88-23.26,65.94,65.94,0,0,0-12.17-9.13C8,160.63,3,161.56,1,165.28s-1,8.43,2.74,10.47Z"/></g></g></svg>