<svg xmlns="http://www.w3.org/2000/svg" viewBox="0 0 248.64 219.34"><g id="Warstwa_2" data-name="Warstwa 2"><g id="Layer_1" data-name="Layer 1"><path d="M27,104.83c0,11.87.49,23.72.74,35.58.15,7,.24,13.86.87,20.79.68,7.39,1.59,14.76,1.88,22.18.2,5.24,0,10.46-.19,15.69-.11,3.42-.24,7.19.88,10.46a13.56,13.56,0,0,0,9.47,9c4.21,1.17,8.83.88,13.12.5,7.41-.66,14.78-1.1,22.22-1.24,8.18-.16,16.36-.2,24.53-.64a7.86,7.86,0,0,0,7.65-7.65,154.28,154.28,0,0,0-.31-18c-.36-7.31-.72-14.63-.58-22a112.68,112.68,0,0,1,.9-12.59l-.27,2a64.16,64.16,0,0,1,1.59-8.13q.51-1.9,1.17-3.75l.34-.9.18-.45c.36-.94-.58,1.33-.5,1.17.3-.59.54-1.21.83-1.8a29.22,29.22,0,0,1,1.82-3.17c.31-.47.64-.92,1-1.37-1.8,2.52-.42.54.14-.08a25.44,25.44,0,0,1,2.56-2.42c-1.83,1.55-.93.68,0,.08.53-.36,1.08-.69,1.64-1l.92-.47c.34-.17,1.67-.74.15-.1s-.17.08.19-.05.68-.24,1-.35a27.44,27.44,0,0,1,4.64-1l-2,.27a30.61,30.61,0,0,1,7.47-.1l-2-.27a20.12,20.12,0,0,1,3.83.9l.78.29c.4.15-2.17-1-.75-.29a17.25,17.25,0,0,1,1.63.9c.5.31,1,.66,1.45,1-2.51-1.69-.48-.35.15.25.44.42.85.85,1.25,1.3.22.24.43.49.64.74,1,1.13-1-1.45-.43-.57a39.15,39.15,0,0,1,2.21,3.47c.32.59.63,1.18.93,1.79l.4.87.23.51c.51,1.11-.67-1.64-.38-.92a71.51,71.51,0,0,1,2.88,9,115.45,115.45,0,0,1,2.17,11.8c-.09-.67-.18-1.35-.28-2,2,15.12,2,30.41,2.6,45.62a7.8,7.8,0,0,0,7.65,7.65c13.95.49,27.83,0,41.76-.65q7-.33,13.93-.57a7.77,7.77,0,0,0,7.64-7.65c-.08-12.54,0-25.08.48-37.61.23-6.3.42-12.62.85-18.92.55-7.86,1.57-15.67,2.5-23.49a233.08,233.08,0,0,0,2-27.17c0-4-3.52-7.83-7.64-7.65a7.79,7.79,0,0,0-7.65,7.65c0,16-2.92,31.72-4.26,47.61-1,12.07-1.28,24.28-1.49,36.39-.13,7.73-.13,15.46-.07,23.19l7.65-7.65c-14.07.49-28.12,1.52-42.2,1.5-4.5,0-9-.12-13.49-.27l7.64,7.64c-.62-17.05-.67-34.17-3.36-51.06C158,144.76,153.09,128,138.91,122c-6.81-2.87-15-2.81-22-.6a31,31,0,0,0-16.34,12.23c-3.49,5-5.52,11.14-6.68,17.09A113.18,113.18,0,0,0,92,171.22c-.11,11.71,1.25,23.38,1,35.08,0,1.06-.06,2.12-.13,3.18l7.65-7.65c-8.5.46-17,.48-25.51.66-4.05.08-8.1.2-12.14.44-3.52.21-7,.64-10.52.9a38.79,38.79,0,0,1-8,0l2,.28a21.33,21.33,0,0,1-2.62-.65c2.46.72,1.67.69.77.22s1.08.82,1.1.87-.32-.28-.4-.36-.21-.24-.32-.34c-.47-.46,1.38,2,.84,1.06s-.46-1.64.27.84a15,15,0,0,1-.56-2.29l.27,2c-.52-3.9-.07-7.94,0-11.84A175.53,175.53,0,0,0,45,171.41c-.8-8.25-1.69-16.45-1.78-24.75-.07-6.13-.26-12.26-.45-18.39-.24-7.82-.39-15.63-.39-23.44,0-4-3.52-7.84-7.65-7.65A7.78,7.78,0,0,0,27,104.83Z"/><path d="M11.53,123.48C35.11,107.73,56.77,89.3,78.16,70.75A176.79,176.79,0,0,0,98.6,49.08c6.56-8,12.81-16.27,18.85-24.66,3.08-4.28,6.13-8.59,9-13l-12,1.54c8.12,8.91,16.88,17.2,25.2,25.9,5.81,6.07,11.54,12.15,17.56,18Q167.95,67.29,179,77.32c8,7.28,16.55,13.85,25.24,20.31,10.73,8,21.77,15.54,33,22.84a7.7,7.7,0,0,0,10.46-2.75,7.81,7.81,0,0,0-2.74-10.46c-9.84-6.4-19.55-13-29-19.9q-3.87-2.83-7.7-5.73l-3.87-2.94-2-1.53c-1.36-1,1,.78.13.09L201,76.13c-3.17-2.46-6.18-5.08-9.16-7.76-13.37-12-26.48-24.39-38.73-37.53C144,21.1,134.28,12,125.31,2.18a7.35,7.35,0,0,0-6.43-2.1,7.63,7.63,0,0,0-5.58,3.65c-2.34,3.49-4.76,6.93-7.19,10.36s-5.06,7-7.65,10.49c-1.49,2-3,4-4.52,6-.59.77,1.27-1.63.43-.55l-.55.71-1.23,1.57c-.82,1-1.66,2.1-2.49,3.14A195.26,195.26,0,0,1,70.33,57.29c-5.06,4.64-10.37,9-15.59,13.5C49.37,75.37,44,79.92,38.49,84.38q-4.44,3.63-9,7.18l-2.23,1.75-.93.72.63-.48-.75.57c-1.47,1.13-3,2.26-4.45,3.38q-8.82,6.61-18,12.77c-3.32,2.22-5.07,6.85-2.74,10.46C3.2,124,8,125.85,11.53,123.48Z"/></g></g></svg>