<svg xmlns="http://www.w3.org/2000/svg" viewBox="0 0 243.14 154.36"><g id="Warstwa_2" data-name="Warstwa 2"><g id="Layer_1" data-name="Layer 1"><path d="M46.88,13.79a6.12,6.12,0,0,1-3,1.75c.1,0,.2-.07.3-.09.31,0,.62-.13.94-.18l-2,.28a68.77,68.77,0,0,1,10.74-.16c4.37.12,8.74.34,13.11.51,11.44.45,22.85.1,34.29,0a169.42,169.42,0,0,1,23,1.1l-2-.27a64,64,0,0,1,6.31,1.09c.74.17,1.46.37,2.18.61l1,.34.48.18c1.14.43-1-.41-1-.43.19-.23,3.31,1.76,3.65,2l.79.55c1.32.92-1.5-1.24-.51-.4.51.44,1,.87,1.51,1.34s1,.95,1.39,1.46c.21.23.42.48.62.72,1.08,1.32-1-1.35-.38-.51a37.49,37.49,0,0,1,2.23,3.49q.51.93,1,1.89c.15.31.29.62.43.93s.42,1-.13-.33-.17-.41,0-.08c.56,1.39,1,2.81,1.47,4.24a72.35,72.35,0,0,1,2.18,10.61l-.27-2c2.55,19.21-.39,38.46.18,57.71.08,2.7.39,5.37.46,8.07a61.07,61.07,0,0,1-.47,9.27l.27-2a41.42,41.42,0,0,1-1.92,8.22q-.15.45-.33.9c-.05.15-.12.29-.17.44-.24.68.56-1.2.47-1.09a11,11,0,0,0-.94,2,33.1,33.1,0,0,1-2.13,3.46c-.67,1,1.2-1.46.43-.56l-.6.72q-.68.77-1.41,1.47a17.1,17.1,0,0,0-1.56,1.37s1.43-1,.92-.71c-.14.09-.27.2-.4.29-.31.22-.63.44-.95.64a19.54,19.54,0,0,1-1.88,1.09c-.3.16-.61.32-.92.46l-.47.22c-.78.39,1.69-.64.85-.36a47.5,47.5,0,0,1-4.64,1.39c-4.26.93-8.57,1.62-12.88,2.2l2-.27A189,189,0,0,1,87.21,139c-5.07-.18-10.11-.8-15.18-.87-5.58-.08-11.16.18-16.74.31a113.49,113.49,0,0,1-17.1-.49l2,.28a49.64,49.64,0,0,1-11.16-2.94c-.24-.09-1-.59-1.32-.53l.45.19-1-.42c-.93-.42-1.85-.82-2.8-1.21,2.41,1,.68.28.16,0a18.1,18.1,0,0,1-2-1.11c-.33-.21-.65-.43-1-.65-1.09-.75,1.57,1.35.39.29-.51-.45-1-.9-1.5-1.4-.28-.3-.55-.61-.82-.92-.86-1,1.17,1.63.44.58A26.51,26.51,0,0,1,18,126.39c-.55-1.16.72,1.83.29.69-.14-.38-.29-.77-.42-1.16-.23-.69-.44-1.4-.62-2.11a39.24,39.24,0,0,1-.85-4.45c.1.68.19,1.36.28,2a100,100,0,0,1-.45-15.19c.13-5.2.14-10.36-.07-15.56-.46-11.12-1-22.24-.86-33.38A147.42,147.42,0,0,1,16.49,40c-.09.67-.18,1.35-.28,2a79,79,0,0,1,1.73-9c.36-1.4.78-2.79,1.25-4.16.22-.61.45-1.22.68-1.82.53-1.38-.75,1.68-.3.69.15-.32.29-.65.45-1a31.51,31.51,0,0,1,1.86-3.43c.31-.5.64-1,1-1.47.2-.28.95-1.26,0,0s-.06.1.18-.18a23.42,23.42,0,0,1,2.49-2.49l.65-.53c-2,1.74-1.22.93-.67.54s1.08-.72,1.64-1,1.17-.62,1.76-.91c1.18-.57-2.06.78-.54.24l1-.35a26.09,26.09,0,0,1,4.47-1l-2,.27a35.8,35.8,0,0,1,7-.2c4,.26,7.82-3.7,7.65-7.65A7.84,7.84,0,0,0,38.8.79,37.78,37.78,0,0,0,26.27,2,30.88,30.88,0,0,0,15.09,8C9.24,12.72,5.73,20.09,3.66,27.18,1.23,35.48.47,44.32.15,52.93c-.34,9.25,0,18.51.33,27.75.19,4.7.42,9.39.58,14.09.14,4.28,0,8.57-.12,12.85-.2,9.26,0,18.87,4.28,27.32a27,27,0,0,0,10.12,10.71,25.57,25.57,0,0,0,2.86,1.45l1.83.77-1-.4a7.5,7.5,0,0,0,1.19.53c1.29.57,2.58,1.12,3.89,1.64a52.19,52.19,0,0,0,7.41,2.43c11.56,2.79,23.75,1.49,35.51,1.31,5.93-.08,11.75.43,17.66.76a171.16,171.16,0,0,0,17.4,0c6.4-.32,12.75-1,19.09-1.84,5.18-.71,10.6-1.34,15.59-2.95a32.45,32.45,0,0,0,13.42-8.1,36.16,36.16,0,0,0,7.73-12.63c3.09-8.07,3.39-17.14,2.68-25.66-.54-6.4-.12-12.93.13-19.34.3-7.55.65-15.1.63-22.65a141.05,141.05,0,0,0-1.89-24c-1.21-6.91-3.39-14-7.34-19.88A33,33,0,0,0,134,3.47c-5.18-1.54-10.79-2-16.16-2.4C111.73.61,105.62.57,99.52.64,89.25.75,79,1,68.74.67,61.36.43,54-.14,46.59,0,42.8.12,39,.34,36.07,3s-2.93,8.13,0,10.81a7.81,7.81,0,0,0,10.81,0Z"/><path d="M70.48,32.48c-7.86.74-16.18-1-23.79,1.71A23.53,23.53,0,0,0,34.48,44a28.33,28.33,0,0,0-4,13.55A34.29,34.29,0,0,0,31,65.34a14.63,14.63,0,0,0,2.22,5.91,8.24,8.24,0,0,0,4.57,3.52A7.86,7.86,0,0,0,43.69,74c3.23-2.08,5.23-7,2.75-10.47-.19-.26-.32-.56-.5-.83-.34-.49.64,1.79.49,1.17,0-.21-.15-.42-.21-.62a15.53,15.53,0,0,1-.55-2.61l.27,2a28,28,0,0,1,0-7c-.1.68-.19,1.36-.28,2A25.7,25.7,0,0,1,46.21,55c.11-.44.24-.88.38-1.31.23-.71,1-1.9-.19.32.42-.78.82-1.55,1.29-2.3s1.58-1.71,0-.06c.3-.31.56-.67.85-1s.59-.59.9-.87c1.42-1.26-1.24.8-.19.13.75-.48,1.53-.87,2.31-1.3-2.2,1.2-1,.41-.29.18.42-.13.84-.26,1.27-.36a25.43,25.43,0,0,1,2.63-.5l-2,.28c5.78-.72,11.62.13,17.4-.41a8.29,8.29,0,0,0,5.41-2.24,7.76,7.76,0,0,0,2.24-5.41c-.17-3.82-3.38-8.06-7.65-7.65Z"/><path d="M83.59,125.35a123.92,123.92,0,0,0,16-.3,49.57,49.57,0,0,0,13.11-2.64A26.37,26.37,0,0,0,122.9,116a24,24,0,0,0,5.63-10.4,42,42,0,0,0,.9-13.64c-.3-4-3.29-7.85-7.64-7.65-3.88.17-8,3.38-7.65,7.65a42.71,42.71,0,0,1-.11,8.9l.27-2a22.63,22.63,0,0,1-.69,3.35c-.14.48-.3,1-.47,1.42-.49,1.39.85-1.84.37-.86-.11.24-.22.49-.35.73-.21.42-.45.83-.7,1.23-.46.73-1.69,1.92.27-.26a26.63,26.63,0,0,1-2.11,2.14c-.8.71,1.93-1.39.73-.56l-.52.36c-.48.32-1,.61-1.49.89s-1,.47-1.43.7c-1,.49,2.22-.86.74-.32l-.69.26a41.21,41.21,0,0,1-8.14,1.85l2-.28a111.32,111.32,0,0,1-18.26.56A7.71,7.71,0,0,0,76,117.7a7.81,7.81,0,0,0,7.64,7.65Z"/><path d="M173.14,54.28c.88,8.25-.3,16.59-1,24.81a121.21,121.21,0,0,0-.59,12.78,48.58,48.58,0,0,0,1.76,13.25c1.05,3.43,4.05,5.88,6.78,8s5.79,4.4,8.82,6.41c6.27,4.17,12.79,8,19.36,11.63,7.23,4,14.55,7.88,21.93,11.62a7.74,7.74,0,0,0,11.51-6.6c.77-18.17-.55-36.37.45-54.54.39-7.06.59-14,.47-21.12-.13-7.59-.37-15.18-.44-22.78a183,183,0,0,1,.92-23.88c.32-2.59-1.68-5.37-3.79-6.61-2.56-1.5-5.13-1.13-7.72,0C227.3,9.2,223.91,12.44,220,15c-1.12.74-2.31,1.36-3.48,2-.69.39-2.72,2-1.28.93,1-.79.31-.24.05-.05-.46.34-.93.67-1.4,1-2,1.33-4,2.57-6,3.88a62,62,0,0,0-7.17,5.34c-1.68,1.48-3.21,3.13-4.87,4.64q-2.06,1.89-4.23,3.65l-.93.74-.46.36c-.68.53,1.53-1.17.84-.65l-2.16,1.63c-4.55,3.4-9.08,6.82-13.5,10.39a7.66,7.66,0,0,0-2.24,5.41,7.81,7.81,0,0,0,2.24,5.41,7.7,7.7,0,0,0,5.41,2.24,8.82,8.82,0,0,0,5.41-2.24q1.56-1.27,3.15-2.52c.47-.37,1-.73,1.42-1.11-1.87,1.54-.05,0,.43-.33,1.58-1.2,3.18-2.39,4.77-3.57,3.17-2.36,6.32-4.74,9.29-7.35,1.51-1.33,3-2.72,4.42-4.14.85-.85,1.71-1.67,2.65-2.44,1.4-1.15-1.31,1,.17-.13.53-.39,1.07-.77,1.61-1.15,2-1.38,4.11-2.64,6.16-4,.88-.57,1.76-1.15,2.6-1.76l.6-.44c.4-.31,1.35-1.36,1.83-1.41-.4,0-1.36,1-.38.51.43-.2.85-.47,1.26-.71,4.54-2.68,8.28-6.52,13.14-8.66l-11.5-6.6C226,28.38,227,43.17,227.28,57.7c.14,6.82.31,13.66-.19,20.46-.67,9.13-.67,18.29-.59,27.43.1,10.22.34,20.43-.09,30.64l11.51-6.6c-7.8-4-15.54-8-23.17-12.33a234.08,234.08,0,0,1-22.14-13.69l-1.26-.92c-.29-.22-1.66-1.27-.42-.31s-.19-.16-.46-.37l-.94-.78A31.33,31.33,0,0,1,186.2,98l2,3.38A35.42,35.42,0,0,1,187,96.05l.27,2c-1.92-14.61,2.7-29.2,1.15-43.8a8.31,8.31,0,0,0-2.24-5.41,7.78,7.78,0,0,0-5.41-2.24c-3.78.17-8.1,3.39-7.65,7.65Z"/></g></g></svg>