<svg xmlns="http://www.w3.org/2000/svg" viewBox="0 0 226 230.21"><g id="Warstwa_2" data-name="Warstwa 2"><g id="Layer_1" data-name="Layer 1"><g id="info"><path d="M119.35,1.84C110-1.7,98.85.45,89.63,3.45A148,148,0,0,0,58.39,18.34a172.14,172.14,0,0,0-25,18.28,92.48,92.48,0,0,0-22.16,28.8c-11.53,24-13.51,51.48-8.81,77.42a100.53,100.53,0,0,0,29.19,53.79c14.56,14,33,23.79,52.49,29a138.28,138.28,0,0,0,61.57,2.09A127.46,127.46,0,0,0,175,218.17c9.42-4.35,18.9-9.9,26-17.52,8.18-8.72,13.73-19.48,17.63-30.71a139.43,139.43,0,0,0,6.92-35.15,137.78,137.78,0,0,0-1.41-33.58C222.23,89.9,218,79,212.71,68.8a129.56,129.56,0,0,0-21.65-30.29,89.26,89.26,0,0,0-30-20.88A59.62,59.62,0,0,0,146,13.75l2,.27c-6.51-.87-13-2.13-19.45-3.17-7.35-1.18-14.87-2.63-22.33-2.74a19.65,19.65,0,0,0-4.9.48,8.51,8.51,0,0,0-6.4,8c-.23,4,3.67,7.82,7.64,7.64a7.81,7.81,0,0,0,7.65-7.64v-.05l-.27,2c-.35,2-2.45,3.85-3.94,4.48s-.54.25,0,.17l-2,.28c4.12-.53,8.6.35,12.67.89l-2-.27c10.77,1.46,21.43,3.81,32.23,5l-2-.27a53.48,53.48,0,0,1,10.27,2.74l1.14.44.48.19c1.08.43-.88-.37-.86-.37a13,13,0,0,1,2.55,1.17c1.66.79,3.27,1.66,4.86,2.59s3.08,1.88,4.56,2.91c.76.51,1.5,1.05,2.23,1.59.35.25.69.51,1,.77.73.55-1.39-1.09-.67-.52l.73.57a98,98,0,0,1,8.48,7.69,112.93,112.93,0,0,1,7.74,8.76,8.1,8.1,0,0,0,1,1.21c.09.07-1.08-1.42-.61-.78l.47.61c.62.83,1.23,1.66,1.83,2.5,1.16,1.62,2.29,3.28,3.37,5q3.18,4.92,5.9,10.12c.87,1.67,1.71,3.37,2.51,5.08.4.85.78,1.7,1.16,2.55.17.4.34.8.52,1.2.36.84-.69-1.66-.34-.81.11.29.23.57.35.85a96.19,96.19,0,0,1,6.36,22.93l-.27-2a142.16,142.16,0,0,1-.15,37.49l.27-2a126.5,126.5,0,0,1-6,25.33q-.53,1.45-1.08,2.91c-.2.51-.4,1-.61,1.52-.09.22-.17.45-.28.67.17-.39.33-.78.49-1.17-.09.23-.19.45-.28.67-.81,1.85-1.68,3.68-2.62,5.47a81.46,81.46,0,0,1-6.47,10.25c1.56-2.15.44-.58,0-.09s-.57.69-.86,1c-.69.8-1.4,1.59-2.13,2.36a53.18,53.18,0,0,1-4.09,3.85l-1.15.94c-.68.56,1.48-1.12.77-.59-.18.12-.35.26-.53.39-.79.58-1.6,1.13-2.41,1.67q-2.34,1.56-4.74,3c-3.2,1.91-6.5,3.65-9.87,5.23-.82.38-1.64.76-2.47,1.12-.43.19-.91.34-1.32.57l.95-.4-.74.3q-2.58,1-5.21,2a123.37,123.37,0,0,1-24.4,5.84l2-.27a131.23,131.23,0,0,1-34.52,0l2,.27a127.73,127.73,0,0,1-25.65-6.18c-2.06-.73-4.09-1.54-6.11-2.36,2.62,1.07.71.3.11,0s-1-.42-1.42-.63c-1-.47-2.07-.95-3.09-1.45a111,111,0,0,1-11.31-6.36q-2.65-1.69-5.21-3.56l-1.23-.91-.61-.46c-1-.76,1.41,1.11.69.54s-1.68-1.33-2.5-2a97.85,97.85,0,0,1-9.36-8.85q-2.19-2.35-4.22-4.88l-1-1.2c-.81-1,1.23,1.61.44.57-.12-.17-.25-.33-.37-.49-.68-.91-1.35-1.83-2-2.76a93.64,93.64,0,0,1-6.71-11.28c-.54-1.09-1.07-2.19-1.57-3.3-.24-.53-.47-1.07-.71-1.6-.53-1.23.78,1.89.28.64-.13-.3-.25-.59-.37-.89-1-2.41-1.84-4.87-2.6-7.35a103.88,103.88,0,0,1-3.54-16.45c.1.68.19,1.36.28,2a130.29,130.29,0,0,1-.09-34.62l-.27,2a111,111,0,0,1,3.07-15c.68-2.43,1.44-4.85,2.3-7.23.41-1.13.84-2.24,1.28-3.35.1-.25.21-.49.31-.74.55-1.35-.64,1.48-.23.55.29-.67.58-1.34.89-2A85.6,85.6,0,0,1,31.15,61.5a33.13,33.13,0,0,1,2.1-2.88s-1.22,1.55-.47.6l.5-.62c.45-.57.92-1.13,1.39-1.69a75.69,75.69,0,0,1,5.21-5.54c2.6-2.51,5.32-4.92,8.12-7.21.71-.58,1.43-1.15,2.15-1.72.2-.15.41-.3.6-.46s-1.7,1.3-.83.64l1.23-.94c1.65-1.24,3.32-2.44,5-3.62a184.51,184.51,0,0,1,23.37-14q3.41-1.69,6.89-3.2l.66-.28c-2.28,1-1.06.44-.52.22l1.8-.72c1.13-.44,2.27-.86,3.41-1.26a69.39,69.39,0,0,1,13.38-3.37l-2,.28a35.65,35.65,0,0,1,9.4-.11l-2-.28a22.94,22.94,0,0,1,4.81,1.22,7.67,7.67,0,0,0,9.41-5.35c1-4.35-1.33-7.89-5.34-9.4Z"/><path d="M150.73,97.85q-1.8,2.57-3.67,5.07l-1,1.28c-.31.41-1.44,1.84-.07.1l-2,2.56q-4.19,5.22-8.68,10.17a174.18,174.18,0,0,1-19.54,18.58l-1.48,1.17c-.35.28-1.15.82.44-.33L114,137c-1,.74-2,1.47-3,2.18s-2.31,1.56-3.41,2.41c-2.54,2-3,4.67-3,7.65l13.06-5.41c-12.61-14.61-24.27-30.09-37.9-43.8A142.72,142.72,0,0,0,68.49,89.75a8.23,8.23,0,0,0-5.4-2.24,7.76,7.76,0,0,0-5.41,2.24c-2.57,2.79-3.32,8.12,0,10.82,14.74,12,26.68,27.12,38.74,41.68,3.44,4.16,6.9,8.31,10.43,12.4,2,2.3,5.73,2.69,8.35,1.59a7.67,7.67,0,0,0,4.71-7v-1.64q-1.91,3.3-3.79,6.6c14.66-9.82,27.39-22.45,38.42-36.17,3.26-4.06,6.41-8.21,9.4-12.47,2.3-3.28.7-8.64-2.75-10.46-3.92-2.07-8-.76-10.46,2.74Z"/></g></g></g></svg>