<svg xmlns="http://www.w3.org/2000/svg" viewBox="0 0 236.55 229.57"><g id="Warstwa_2" data-name="Warstwa 2"><g id="Layer_1" data-name="Layer 1"><path d="M50.21,12.12c-17,12.09-30.33,29.42-39,48.29-9.12,19.77-14.11,42.41-9.31,64,4.06,18.34,15.84,34.74,29.58,47.18C46,184.77,63.85,195.06,83,199.51a79.55,79.55,0,0,0,27.58,1.86A93,93,0,0,0,140.84,192c17.64-8.85,32.42-23.33,42.5-40.23s15.68-36.8,15-56.52c-.7-20.23-9-39.5-21.59-55.1-12.19-15.06-28.81-26.15-46.84-33A113,113,0,0,0,101.23.57,93.69,93.69,0,0,0,66.38,3.16,99.1,99.1,0,0,0,49.12,9.93c-3.59,1.79-4.88,7.16-2.75,10.47a7.85,7.85,0,0,0,10.47,2.74c1-.49,2-1,3-1.44a10.45,10.45,0,0,0,1.74-.77l-.52.22.44-.18q3.18-1.29,6.45-2.32A81.15,81.15,0,0,1,81.11,15.7l-2,.27a95.66,95.66,0,0,1,25.52.3l-2-.28A106.64,106.64,0,0,1,126,22c.93.36,1.87.73,2.79,1.11,1.59.66-1.42-.62-.27-.11l1.71.75c1.82.83,3.62,1.7,5.39,2.63a102.22,102.22,0,0,1,10.27,6.12q2.46,1.67,4.84,3.47l-.67-.51a7.09,7.09,0,0,0,.59.46l1.15.93c.82.67,1.62,1.34,2.42,2a98.81,98.81,0,0,1,8.57,8.43q2,2.21,3.82,4.53c.15.19.29.4.45.58,0,0-1.22-1.61-.52-.67.26.35.52.69.77,1,.63.84,1.23,1.7,1.82,2.56a90,90,0,0,1,6,10.19c.5,1,1,2,1.44,3a17.43,17.43,0,0,0,.76,1.71s-.79-1.9-.34-.8l.28.69q1.31,3.22,2.34,6.54a85.47,85.47,0,0,1,3,13.61c-.09-.68-.19-1.36-.28-2a84,84,0,0,1-.12,22.18l.27-2a98,98,0,0,1-6,22.77c-.16.41-.33.82-.5,1.23-.66,1.62.72-1.67,0-.07-.4.94-.82,1.86-1.25,2.79q-1.26,2.67-2.67,5.27A103.84,103.84,0,0,1,166,150.46c-.51.73-1,1.45-1.57,2.17a8.3,8.3,0,0,0-.92,1.22c0,.11,1.11-1.42.62-.79l-.6.75c-1.22,1.54-2.5,3.05-3.81,4.52a103,103,0,0,1-8.4,8.32c-.72.63-1.45,1.25-2.18,1.85-.34.29-.69.57-1,.85l-.59.47c-1,.77.17-.11.49-.37-1.51,1.25-3.17,2.36-4.8,3.46a92,92,0,0,1-10.06,5.88c-1,.52-2.07,1-3.12,1.49-.46.22-.93.42-1.4.63-1.1.48.72-.31.76-.32a6.71,6.71,0,0,0-.89.37c-2.09.84-4.21,1.61-6.36,2.29a77.41,77.41,0,0,1-13.19,3.05l2-.27a70.26,70.26,0,0,1-18.21-.13l2,.27A93.19,93.19,0,0,1,72.37,180a4.7,4.7,0,0,0-.7-.29c-.14,0,1.7.72,1,.4l-1.39-.61c-.93-.41-1.86-.84-2.77-1.28q-2.68-1.29-5.3-2.71a115.34,115.34,0,0,1-10.35-6.37q-1.2-.83-2.37-1.68l-1.25-.92c-.28-.21-1.88-1.43-.76-.57l-.45-.35-1.2-1q-1.2-1-2.37-2a112,112,0,0,1-8.69-8.33c-1.33-1.42-2.63-2.88-3.88-4.37-.6-.72-1.19-1.44-1.77-2.17l-.46-.59c-.57-.72,1.06,1.4.52.67l-1-1.34A87.35,87.35,0,0,1,23,137.1q-1.55-2.79-2.87-5.7l-.56-1.29c1.12,2.46.27.63,0,.06-.38-1-.75-1.94-1.08-2.92a61.46,61.46,0,0,1-2.81-11.67c.09.68.19,1.36.28,2a84.66,84.66,0,0,1,.07-22.15l-.27,2A103.9,103.9,0,0,1,20,79.58q1.39-4.32,3.13-8.52c.08-.21.65-1.56.11-.28s0-.08.13-.28c.29-.66.58-1.32.88-2q1-2.16,2.06-4.28a127.32,127.32,0,0,1,9.41-15.76c.8-1.14,1.62-2.27,2.45-3.39.17-.22.34-.44.5-.67.94-1.24-1.14,1.46-.18.24.51-.65,1-1.29,1.54-1.93,1.79-2.2,3.65-4.33,5.6-6.38,2.13-2.26,4.36-4.44,6.69-6.49,1.12-1,2.27-2,3.44-2.89l.58-.46c1.09-.86-1.61,1.21-.25.2Q57,26,57.93,25.33a8.27,8.27,0,0,0,3.52-4.57,7.88,7.88,0,0,0-.77-5.9c-2.09-3.22-7-5.22-10.47-2.74Z"/><path d="M161.65,169.55a62.52,62.52,0,0,1,6.9,4c1.08.72,2.13,1.47,3.17,2.25.31.23.63.46.94.71,0,0-1.55-1.23-.62-.47.62.5,1.24,1,1.85,1.5a146.29,146.29,0,0,1,12.44,11.83c8,8.42,15.43,17.41,23.55,25.73A133.89,133.89,0,0,0,225,228.55c1.48,1.11,4.2,1.23,5.9.77a7.82,7.82,0,0,0,4.57-3.52,7.68,7.68,0,0,0,.77-5.89,8.91,8.91,0,0,0-3.52-4.57c-.42-.32-1.56-1.25.33.26l-.61-.48c-.5-.4-1-.81-1.5-1.22q-1.68-1.38-3.28-2.84c-2.1-1.89-4.13-3.85-6.12-5.86-4.11-4.16-8-8.5-11.92-12.86-7.66-8.58-15.24-17.34-24-24.81a83.39,83.39,0,0,0-16.25-11.19c-3.56-1.8-8.45-1.06-10.46,2.74-1.84,3.48-1.07,8.54,2.74,10.47Z"/><path d="M102.14,37.3c-13-1-25.21,5.63-34.43,14.25A79.94,79.94,0,0,0,47.27,83.47a49.89,49.89,0,0,0-3,18.29c.18,4,3.39,7.84,7.65,7.65,4-.18,7.84-3.37,7.64-7.65a35.52,35.52,0,0,1,.31-6.27l-.27,2a54.2,54.2,0,0,1,3.24-12.13c.2-.52.42-1,.62-1.54.36-.89-.85,2-.31.74l.27-.61c.51-1.15,1.06-2.28,1.63-3.39,1-2.07,2.21-4.09,3.45-6q.9-1.42,1.86-2.79c.3-.44.61-.87.92-1.3s2-2.55.3-.43c1.5-1.81,3-3.62,4.62-5.32A61.41,61.41,0,0,1,81.25,60c.5-.41,2.24-1.67.06-.08l1.37-1c.91-.65,1.84-1.27,2.8-1.85,1.12-.69,2.28-1.34,3.46-1.92l1.48-.7c1.23-.56-1.89.76-.63.27l.9-.35a33.6,33.6,0,0,1,7.11-1.82l-2,.27a30.94,30.94,0,0,1,6.38-.19c4,.3,7.83-3.73,7.65-7.65a7.82,7.82,0,0,0-7.65-7.64Z"/></g></g></svg>