<svg xmlns="http://www.w3.org/2000/svg" viewBox="0 0 228.1 204.07"><g id="Warstwa_2" data-name="Warstwa 2"><g id="Layer_1" data-name="Layer 1"><path d="M32.87,17.28c10.16-1,20.41-.79,30.6-.51,10.5.29,21,.64,31.49.4,11-.25,22-.88,33-1.25,10.77-.35,21.56-.4,32.34-.59a160,160,0,0,1,17.24.35c5.58.51,11.2.71,16.76,1.45l-2-.27a55,55,0,0,1,5.54,1c.89.22,1.79.46,2.66.76.59.21,1.63.83-.58-.27l.89.41c.57.28,1.12.59,1.66.92s2.25,1.85.19,0a27.76,27.76,0,0,1,2.63,2.57c.95,1.08-.92-1.3-.48-.63.16.25.34.48.5.72.36.53.68,1.07,1,1.63s.53,1,.79,1.59c.51,1.08-.76-1.91-.31-.73.11.29.22.57.32.85a38.54,38.54,0,0,1,1.78,7.64l-.27-2c.93,7,.58,14,.34,21a141.79,141.79,0,0,0,.36,16.36c1,12.46,2.79,24.85,3.34,37.34a118.64,118.64,0,0,1-.65,21.07l.27-2a58.12,58.12,0,0,1-1.65,8.14c-.36,1.25-.77,2.48-1.24,3.69-.1.27-.22.53-.32.8,1-2.62.57-1.34.28-.72s-.54,1.15-.84,1.71a27.28,27.28,0,0,1-1.9,3c-.77,1.09.33-.46.59-.72-.21.21-.38.47-.58.7-.39.46-.79.9-1.22,1.33s-.81.78-1.23,1.15a6.1,6.1,0,0,0-.61.51c-.11.12,1.8-1.34,1-.78-.16.1-.31.22-.46.33a21.71,21.71,0,0,1-3.09,1.81l-.43.2c-.83.42,1.26-.51,1.17-.48-.35.09-.69.27-1,.39-.67.24-1.35.45-2,.63a42,42,0,0,1-5.08.94l2-.28c-9.74,1.29-19.65.94-29.44.41-10.47-.57-20.92-1.51-31.4-1.88-9.48-.33-19.22-.28-28.51,1.9a37,37,0,0,0-11.51,4.62,28.26,28.26,0,0,0-5,4c-1.72,1.8-3.27,3.77-5,5.55-9.91,10.13-21.78,18.23-31,29l13,5.41c1.54-13.37,0-26.76,0-40.16a7.47,7.47,0,0,0-3-6A7.82,7.82,0,0,0,57.06,149c-1.16.21-2.32.4-3.49.56l2-.28a75.29,75.29,0,0,1-20,.13l2,.28A50,50,0,0,1,27,146.89c2.73,1-.14-.12-.84-.49A23,23,0,0,1,24,145.08c-.54-.37-1.72-1.44.28.27-.32-.27-.64-.52-.95-.8a18,18,0,0,1-1.63-1.64c-.45-.5-1.07-1.61.32.47-.22-.32-.46-.63-.68-1-.39-.59-.74-1.2-1.07-1.82-.17-.33-.33-.67-.48-1-.73-1.58.64,1.66.2.49-.29-.75-.57-1.51-.81-2.29a63.27,63.27,0,0,1-2.25-10.74l.27,2c-1.62-12.38-1-24.82-1.28-37.27-.23-9.89-.73-19.77-.55-29.67a168,168,0,0,1,1.3-18.89l-.27,2a77.45,77.45,0,0,1,4.4-17.82c-1.15,3-.2.49.15-.24s.65-1.31,1-1.95a35.29,35.29,0,0,1,2-3.2c.89-1.25-1.27,1.55-.47.6.21-.24.41-.49.62-.74.42-.47.85-.94,1.31-1.38s.81-.75,1.24-1.11c1.08-.94-1.71,1.22-.66.49l.77-.53a17.76,17.76,0,0,1,1.78-1.06c.31-.16.63-.29.94-.45.83-.41-1.41.55-1.24.52a3.59,3.59,0,0,0,.59-.23,20.25,20.25,0,0,1,4.26-1.05l-2,.27a25.55,25.55,0,0,1,5.1-.14c4,.26,7.82-3.71,7.65-7.65A7.84,7.84,0,0,0,36.15,2,27.66,27.66,0,0,0,18,6.93C12.26,11.22,8.65,17,6,23.53A76,76,0,0,0,1.47,42.25,176.21,176.21,0,0,0,0,63.29c-.16,11.34.65,22.65.61,34,0,8.12-.09,16.25.49,24.35.64,9,1.69,18.44,5.84,26.57s12.64,13,21.29,15.18a73.5,73.5,0,0,0,26.11,1.32c2.26-.27,4.53-.58,6.77-1l-9.68-7.38c0,13.4,1.53,26.79,0,40.16a7.23,7.23,0,0,0,1,3.86,7.56,7.56,0,0,0,3.66,3.13c2.64,1.11,6.36.72,8.35-1.58,7.43-8.61,16.56-15.56,25-23.16a146,146,0,0,0,10.73-11,17.91,17.91,0,0,1,1.45-1.44c.55-.48,1.87-1.3-.48.33.32-.22.62-.46.94-.68,1.29-.87,2.73-1.4,4-2.18.11-.06-2.09.82-1.13.48l.72-.27c.4-.15.81-.29,1.23-.43.89-.29,1.8-.55,2.71-.78a55,55,0,0,1,6.1-1.14l-2,.27c13.13-1.72,26.58-.47,39.73.43,13.49.92,27.24,2.13,40.73.58,6.09-.71,12.14-1.76,17.32-5.29a31.7,31.7,0,0,0,10.6-12.09c5.13-10.36,6.09-22.29,6-33.69s-1.46-23-2.66-34.38c-.5-4.84-1-9.68-1.23-14.54-.26-5.36.06-10.71.21-16.06a90.79,90.79,0,0,0-1.27-20.43c-1.3-6.42-4.3-13.1-9.45-17.35A28.81,28.81,0,0,0,202.3,3.24,85.24,85.24,0,0,0,188,1.18C178.92.45,169.92-.13,160.81,0,151.2.19,141.57.25,132,.51c-9.83.26-19.64.79-29.46,1.14Q88.23,2.16,74,1.78c-9.39-.26-18.78-.65-28.17-.49-4.32.07-8.64.27-12.94.69a8.26,8.26,0,0,0-5.41,2.24,7.83,7.83,0,0,0-2.24,5.41c.17,3.81,3.39,8.06,7.65,7.65Z"/><path d="M50.9,71.36c32.38.65,64.77,1.28,97.16,1.53q13.71.1,27.41.11c4,0,7.83-3.52,7.64-7.65a7.77,7.77,0,0,0-7.64-7.64c-32.39,0-64.78-.5-97.16-1.11L50.9,56.07c-4-.08-7.83,3.57-7.65,7.65a7.79,7.79,0,0,0,7.65,7.64Z"/><path d="M49.26,109.06c20.12,0,40.08-3.35,60.21-3.28a136.46,136.46,0,0,1,17,1.07l-2-.27a96.22,96.22,0,0,1,11.29,2.21c3.86,1,8.48-1.28,9.4-5.34A7.78,7.78,0,0,0,139.8,94C116.51,88,92.3,91.19,68.68,92.92c-6.46.48-12.94.84-19.42.85-4,0-7.83,3.51-7.65,7.64a7.78,7.78,0,0,0,7.65,7.65Z"/></g></g></svg>