<svg xmlns="http://www.w3.org/2000/svg" viewBox="0 0 242.01 216.41"><g id="Warstwa_2" data-name="Warstwa 2"><g id="Layer_1" data-name="Layer 1"><path d="M133,38.7c.12-.31.24-.62.35-.93.43-1.15-.83,1.8-.18.46.31-.63.62-1.26,1-1.88s.72-1.2,1.12-1.77a9.44,9.44,0,0,0,.65-.92s-1.11,1.38-.71.91c.14-.16.27-.33.41-.5a29.76,29.76,0,0,1,2.91-3c.53-.48,1.07-.93,1.62-1.38.93-.77-1.49,1.1-.5.39.36-.25.71-.52,1.08-.77A51.5,51.5,0,0,1,148.63,25a10.21,10.21,0,0,1-1,.43,2.26,2.26,0,0,1,.49-.19l1.15-.45c.72-.27,1.44-.53,2.16-.77,1.52-.51,3.06-1,4.62-1.37a85,85,0,0,1,10.5-2l-2,.27a75.6,75.6,0,0,1,20-.26l-2-.27A65.29,65.29,0,0,1,196,23.67l1.6.62c1.24.49-1.6-.71-.72-.31l.78.34c1.08.48,2.15,1,3.2,1.56a53.72,53.72,0,0,1,5.76,3.52l1.23.9c1.11.81-1.54-1.24-.48-.37.18.14.36.28.53.43.93.75,1.82,1.54,2.69,2.35a51.21,51.21,0,0,1,4.71,5.06l.55.69c-1.45-1.73-.86-1.13-.55-.71s.7,1,1,1.44c.73,1,1.42,2.09,2.08,3.17A67.69,67.69,0,0,1,222,49.18c.2.46.49,1.32-.32-.76.14.37.3.73.45,1.09.29.74.57,1.48.83,2.22.5,1.41,1,2.83,1.37,4.27a73.08,73.08,0,0,1,1.92,9.86l-.27-2a88.76,88.76,0,0,1-.08,23.2l.27-2a99.83,99.83,0,0,1-3.81,16.73c-.9,2.81-1.92,5.59-3,8.32-.1.26-.21.52-.32.78.88-2.2.31-.73.11-.26s-.51,1.17-.78,1.75c-.61,1.36-1.25,2.71-1.91,4a145.74,145.74,0,0,1-8.82,15.29q-2.52,3.81-5.24,7.48l-1.18,1.58c-.22.28-.45.57-.66.86,1.23-1.71.58-.75.26-.34q-1.41,1.81-2.87,3.58a215.33,215.33,0,0,1-24.78,25.39q-3.17,2.77-6.43,5.43c-1.07.88-2.15,1.74-3.23,2.59-.46.36-2.42,1.86-.4.32L161.11,180c-4.55,3.43-9.53,6.46-14.37,9.45-3,1.83-6,3.6-9.06,5.23q-2.16,1.14-4.38,2.18c-.79.37-1.59.69-2.38,1.06,2.33-1.1-.31.11-.92.33-1.39.52-2.8.93-4.21,1.37-4.14,1.31-6.48,5.83-5.91,10,.71,5.32,6.83,8.58,11.56,5.69a20.91,20.91,0,0,0,2.26-1.74c.48-.39.8-.29-.9.69.37-.21.71-.47,1.09-.67a7.7,7.7,0,0,0,2.75-10.46,7.82,7.82,0,0,0-10.47-2.75,20,20,0,0,0-2.87,2c-.2.16-.4.31-.6.48l-.16.13a6.4,6.4,0,0,1,2.93-1.68l2-.27h-.06l5.41,2.24,0,0,2,3.38,0-.09c.09.68.19,1.35.28,2v-.13c-.1.68-.19,1.36-.28,2a13.12,13.12,0,0,1,.43-1.48l-5.34,5.34c12.38-3.44,23.51-10.8,34.1-17.86a205.53,205.53,0,0,0,28.49-23.35c18.19-17.58,33.9-38.38,42.84-62.22,8.73-23.3,9.85-51-2-73.41a60.28,60.28,0,0,0-22.18-23.46C201.63,8.4,190.76,5.6,179.8,4.81a73.91,73.91,0,0,0-14.26.61A94.43,94.43,0,0,0,149,8.7C138.39,12,128.28,17.59,121.94,27a34.38,34.38,0,0,0-3.71,7.64c-1.35,3.77,1.53,8.54,5.35,9.41,4.3,1,8-1.3,9.4-5.34Z"/><path d="M127.73,44.41a57.19,57.19,0,0,0-5.38-19.29,41.65,41.65,0,0,0-9.78-12.73C103.87,4.82,93,1.14,81.66.21A77.07,77.07,0,0,0,49,5.09,83.94,83.94,0,0,0,19,23.8,62.69,62.69,0,0,0,2,53.87C-1.22,67.32-.35,81.33,3.19,94.62,6.87,108.48,13.3,121.67,21,133.74a217,217,0,0,0,28.57,35.6,221.16,221.16,0,0,0,33.52,28c10.08,6.81,21,12.82,32.69,16.45a64,64,0,0,0,6.71,1.7,8.2,8.2,0,0,0,5.89-.77,7.82,7.82,0,0,0,3.52-4.57c.86-3.78-1.14-8.6-5.34-9.41A69.43,69.43,0,0,1,114.16,197c-.53-.2-1-.42-1.58-.63-1.24-.51,1.77.76.73.3l-.86-.37c-1.12-.5-2.24-1-3.35-1.54-2.32-1.12-4.6-2.32-6.85-3.57a163.94,163.94,0,0,1-14.1-8.91c-1.2-.84-2.38-1.69-3.56-2.56-.58-.42-1.15-.85-1.72-1.28l-.92-.7-.4-.3c-.8-.61.7.55.76.58a32.87,32.87,0,0,1-3.56-2.82q-1.78-1.44-3.54-2.93a224.87,224.87,0,0,1-27-27.1c-1-1.23-2.05-2.48-3.05-3.73q-.73-.91-1.44-1.83c-.2-.25-1-1.31-.17-.21s-.15-.19-.38-.5c-1.93-2.54-3.81-5.13-5.61-7.77a172.29,172.29,0,0,1-9.8-16.07q-2.16-4.05-4.06-8.22c-.3-.66-.59-1.33-.88-2-.09-.2-.43-.73-.4-.92,0,0,.81,2,.38.9l-.25-.61c-.56-1.37-1.1-2.76-1.61-4.15a101.8,101.8,0,0,1-4.63-16.61c-.26-1.37-.48-2.75-.67-4.13.1.68.19,1.36.28,2a72.76,72.76,0,0,1-.12-19.22l-.27,2a73.79,73.79,0,0,1,1.83-8.94c.35-1.31.76-2.61,1.23-3.88.21-.6.45-1.19.68-1.78.52-1.32-.87,2-.28.67.16-.35.31-.7.47-1a52.33,52.33,0,0,1,4-7c.36-.53.72-1,1.09-1.56l.52-.72.31-.41c.7-1-1.32,1.66-.58.75s1.67-2,2.55-3a65.24,65.24,0,0,1,5.89-5.75c.49-.43,1-.84,1.49-1.25.26-.22.53-.44.81-.65,1.26-1-1.49,1.11-.42.32s2.24-1.65,3.39-2.43a79.28,79.28,0,0,1,7.09-4.22c1.24-.65,2.5-1.27,3.77-1.86.63-.29,1.28-.57,1.92-.85,1-.45-2,.82-.74.31l1.09-.44a78.49,78.49,0,0,1,18-4.73l-2,.28a64.21,64.21,0,0,1,17-.13l-2-.28a50.71,50.71,0,0,1,9.88,2.33c.76.27,1.5.57,2.24.86-3-1.17-.17-.05.65.35a37.25,37.25,0,0,1,4.29,2.47c.62.41,1.23.85,1.83,1.29.9.67-1.7-1.36-.84-.64l.35.28,1,.87a35.64,35.64,0,0,1,3.5,3.56c.25.29.49.59.73.89.72.87-1.3-1.74-.63-.82l.28.37c.53.73,1,1.47,1.52,2.23a38.37,38.37,0,0,1,2.45,4.61c.11.22.2.46.31.68-1.15-2.49-.61-1.47-.39-.89s.37,1,.54,1.43c.35,1,.67,2,1,3a51.61,51.61,0,0,1,1.38,6.85l-.27-2c0,.39.1.78.14,1.17a8.38,8.38,0,0,0,2.24,5.41,7.83,7.83,0,0,0,5.41,2.24,7.75,7.75,0,0,0,5.41-2.24c1.28-1.4,2.46-3.44,2.24-5.41Z"/></g></g></svg>