<svg xmlns="http://www.w3.org/2000/svg" viewBox="0 0 230.73 237.19"><g id="Warstwa_2" data-name="Warstwa 2"><g id="Layer_1" data-name="Layer 1"><path d="M48.2,72.14C35,71.78,22.2,78,13.52,87.82,5.06,97.37-.41,110.06,0,123a40.34,40.34,0,0,0,5.3,19,41.82,41.82,0,0,0,15,14.71c13,7.56,28.77,6.69,42.2.9,12.67-5.45,23.57-16.43,27.21-29.95a47.26,47.26,0,0,0,1.1-6.27l-.27,2c1.59-10.58,1-22-5.7-30.84-6-7.94-14.66-12.66-24.15-15.3a99.19,99.19,0,0,0-16.86-2.87,7.65,7.65,0,0,0-5.41,2.24A7.83,7.83,0,0,0,36.18,82c.2,4.47,3.37,7.23,7.65,7.65,1.36.13,2.72.28,4.08.46l-2-.27a81.45,81.45,0,0,1,9.8,1.88c1.55.4,3.08.86,4.59,1.39.68.24,1.36.5,2,.77,1.42.56-1-.44-.55-.24l1.11.5a39.13,39.13,0,0,1,3.93,2.12c.58.36,1.14.74,1.7,1.13l.81.6c-2.23-1.61-.82-.63-.31-.2a27.56,27.56,0,0,1,2.93,2.89,10.32,10.32,0,0,0,.73.88c.15.14-1.18-1.58-.77-1,.11.16.23.31.34.46.42.59.81,1.19,1.17,1.81s.79,1.46,1.15,2.21c.64,1.3-.69-1.81-.18-.45.16.43.32.86.47,1.29a31.53,31.53,0,0,1,1.22,5.34c-.09-.68-.18-1.36-.28-2a43.11,43.11,0,0,1-.14,11.29l.27-2c-.15,1.07-.3,2.13-.44,3.2.09-.68.19-1.35.28-2a32,32,0,0,1-1.06,4.83c-.22.76-.48,1.51-.76,2.25a2.82,2.82,0,0,0-.24.59c0,.1.76-1.73.47-1.1l-.59,1.29a34.94,34.94,0,0,1-2.36,4.11c-.23.35-.47.69-.72,1s-1,1.39-.16.24,0,0-.19.23-.61.73-.93,1.09a41.52,41.52,0,0,1-3.51,3.51c-.61.54-1.24,1-1.86,1.56s.92-.69.91-.7-.45.34-.52.39l-1.18.85a46.3,46.3,0,0,1-4.3,2.64c-.67.36-1.35.7-2,1l-1.18.55-.45.2c-.82.37,1.88-.77.77-.33a48.23,48.23,0,0,1-11,2.91l2-.27a40.63,40.63,0,0,1-10.51,0l2,.27a41.71,41.71,0,0,1-8.09-2.12c-.46-.16,1.88.85.65.27l-1-.47c-.62-.31-1.24-.63-1.84-1-1.28-.74-2.48-1.59-3.68-2.45-1-.71,1.43,1.17.51.39l-.87-.72c-.52-.44-1-.9-1.52-1.38-1-1-1.87-2-2.77-3.05-.32-.38,1.24,1.67.47.6l-.6-.85q-.54-.78-1-1.59c-.66-1.11-1.1-2.36-1.77-3.45-.12-.19.76,1.88.49,1.17-.06-.17-.14-.35-.21-.52l-.39-1.07c-.21-.62-.41-1.25-.58-1.88a34.4,34.4,0,0,1-.88-4.27c.1.68.19,1.36.28,2a37.22,37.22,0,0,1,0-9.89c-.09.68-.19,1.36-.28,2A42.71,42.71,0,0,1,18,108.86l.22-.54c.4-1-.47,1.09-.43,1,.21-.38.36-.82.54-1.21.37-.79.77-1.58,1.18-2.36a47,47,0,0,1,2.7-4.39l.68-1,.35-.47c.63-.87-.71.89-.66.84.61-.63,1.12-1.38,1.7-2A42.59,42.59,0,0,1,28,95c.59-.53,1.19-1,1.8-1.52s-1.71,1.28-.39.3c.4-.29.79-.57,1.2-.85A38.9,38.9,0,0,1,35,90.29l1.32-.64.53-.24c1.11-.5-.72.33-.88.37.93-.23,1.84-.71,2.76-1a35.57,35.57,0,0,1,5.78-1.31l-2,.27a37.13,37.13,0,0,1,5.77-.3,7.72,7.72,0,0,0,7.65-7.65,7.8,7.8,0,0,0-7.65-7.65Z"/><path d="M185.87,0a38.21,38.21,0,0,0-14.61,4.3,31.45,31.45,0,0,0-9.43,7.9,37.12,37.12,0,0,0-8.19,24.1,37.64,37.64,0,0,0,9.49,24.12,34.08,34.08,0,0,0,10.53,7.92,50,50,0,0,0,15.71,4.37c7.64,1,15.59.19,22.46-3.47C218,66,222.3,60.33,224.74,53.85c2.29-6.06,2.24-12.74,1.19-19a41,41,0,0,0-7-16.93C215,12.45,210,7.72,203.76,5a36.88,36.88,0,0,0-23.5-2,39.19,39.19,0,0,0-5.17,1.62,8.3,8.3,0,0,0-4.57,3.51,7.84,7.84,0,0,0-.77,5.9c1.17,3.62,5.41,6.88,9.41,5.34a36.91,36.91,0,0,1,8.46-2.23l-2,.27a29.91,29.91,0,0,1,7.68,0l-2-.27a26,26,0,0,1,4,.87c.64.19,1.27.41,1.89.65l.37.14c1,.37-1.94-.85-1.18-.5.32.15.66.29,1,.45a27.93,27.93,0,0,1,3.4,2c.24.17.48.33.72.51l.39.28c.76.54-1.26-1-1.09-.84.54.47,1.11.9,1.64,1.38a30.81,30.81,0,0,1,2.66,2.7c.53.62,2,2.68.1,0,.38.53.77,1,1.14,1.58a39,39,0,0,1,2,3.35c.3.57.59,1.16.86,1.75l.36.8a12.33,12.33,0,0,0-.51-1.2l.22.54A36.59,36.59,0,0,1,211.35,40l-.27-2a32.18,32.18,0,0,1,0,8.32l.27-2a26.36,26.36,0,0,1-1.25,5.19c-.07.2-.15.39-.22.58-.41,1.12.38-.93.47-1.1-.22.4-.38.85-.59,1.26a19.54,19.54,0,0,1-1.27,2.17c-.45.68-1.66,2,.33-.35-.28.33-.54.68-.83,1a18.35,18.35,0,0,1-1.9,1.84c-.15.14-.32.27-.48.4-.75.64,1.84-1.35.9-.7-.37.26-.74.52-1.13.77a22.83,22.83,0,0,1-2.49,1.33c-1.27.61,1.94-.75.84-.35l-.74.28c-.55.2-1.1.37-1.66.53a27.81,27.81,0,0,1-3.61.73l2-.27a39.37,39.37,0,0,1-10.4-.12l2,.27a43.82,43.82,0,0,1-8.62-2c-.75-.26-3-1.35-.37-.09-.6-.29-1.21-.56-1.8-.87a28.39,28.39,0,0,1-3.43-2.07,3.18,3.18,0,0,1-.76-.56c-.07-.11,1.71,1.39.92.71l-.31-.25c-.51-.42-1-.86-1.48-1.31A31.1,31.1,0,0,1,173,48.56c-.84-1,1.12,1.55.5.64l-.52-.72q-.53-.78-1-1.59c-.59-1-1.09-2-1.59-3.09-.37-.78.82,2.08.29.68-.13-.35-.26-.69-.38-1-.22-.62-.41-1.25-.59-1.89a31.35,31.35,0,0,1-.8-4l.27,2a31.44,31.44,0,0,1,0-8.28c-.09.68-.18,1.35-.28,2A30.83,30.83,0,0,1,170.52,27c.09-.22.18-.45.26-.67.36-1-.93,2.08-.34.82.23-.51.47-1,.73-1.52a28.32,28.32,0,0,1,1.67-2.8l.42-.59c.69-1-.41.57-.61.77.39-.39.72-.89,1.09-1.3a23.5,23.5,0,0,1,2.36-2.32l.66-.56c.82-.7-1.64,1.21-.76.59.48-.34.95-.69,1.45-1a24.9,24.9,0,0,1,3-1.67l.36-.17c.84-.41-1.14.46-1.1.46a4.16,4.16,0,0,0,1-.39q1-.34,1.95-.63a31.52,31.52,0,0,1,4.32-.89l-2,.27.89-.1a8.28,8.28,0,0,0,5.4-2.24,7.74,7.74,0,0,0,2.24-5.41c-.17-3.77-3.38-8.11-7.64-7.65Z"/><path d="M187.47,158.41a74.42,74.42,0,0,0-17.82,11.76,61.58,61.58,0,0,0-14.13,17.07c-3.78,7-5.53,14.71-4.11,22.64,1.56,8.66,7.8,15.48,14.71,20.43a36.52,36.52,0,0,0,23.21,6.84,49.17,49.17,0,0,0,22.94-7c6.48-3.93,12.51-9.63,15.62-16.64a31.37,31.37,0,0,0,.8-24.15,47.28,47.28,0,0,0-14.45-20.21c-6.45-5.14-14.58-9.32-23.09-8.45a23.47,23.47,0,0,0-6.22,1.32,8.32,8.32,0,0,0-4.58,3.51,7.89,7.89,0,0,0-.77,5.9c1.17,3.61,5.42,6.89,9.41,5.34a17.43,17.43,0,0,1,3.75-1l-2,.27a19,19,0,0,1,4.76,0l-2-.27a22.58,22.58,0,0,1,4.79,1.21c.62.23,2,1-.35-.18.29.15.59.27.88.41.79.38,1.56.8,2.32,1.24s1.52.95,2.25,1.46l.83.61c1,.75-1.66-1.35-.2-.14a40.39,40.39,0,0,1,3.93,3.7c.6.65,1.17,1.31,1.73,2,1.21,1.49-.87-1.2-.11-.16.28.38.56.75.82,1.14a38.12,38.12,0,0,1,2.71,4.46c.36.69,1.56,3.68.53,1,.27.73.57,1.45.82,2.19a30.37,30.37,0,0,1,1.19,5.05c-.09-.67-.18-1.35-.28-2a23.6,23.6,0,0,1,0,6.17l.27-2a22.7,22.7,0,0,1-1.19,4.67c-.63,1.66.72-1.56.19-.44-.17.37-.34.73-.52,1.09-.38.72-.78,1.43-1.22,2.11s-2.3,2.95-.41.72c-.54.64-1.06,1.29-1.63,1.9a37.33,37.33,0,0,1-3.76,3.46c-1,.8,1.75-1.3.26-.21-.35.26-.71.51-1.07.75-.73.49-1.47,1-2.23,1.4s-1.54.87-2.32,1.27-3.65,1.54-.9.47a45.82,45.82,0,0,1-10.22,2.81l2-.28a35.54,35.54,0,0,1-9.33.07l2,.27a29.89,29.89,0,0,1-4-.82q-.9-.26-1.77-.57c-.31-.11-1.68-.68-.24-.07s.23.09-.08,0a31.85,31.85,0,0,1-4.15-2.42l-1.22-.84c-.23-.17-1.47-1.11-.37-.26s-.26-.22-.46-.39l-.87-.75a36.33,36.33,0,0,1-3.11-3.22c-1.07-1.22,1,1.44.27.37l-.57-.8c-.35-.52-.68-1.06-1-1.61s-.6-1.18-.89-1.77.84,2.14.26.6c-.1-.28-.2-.55-.29-.83a21.29,21.29,0,0,1-.81-3.62l.27,2a22.49,22.49,0,0,1,0-5.62c-.1.67-.19,1.35-.28,2a27.94,27.94,0,0,1,1-4.35c.22-.71.48-1.4.74-2.09.42-1.1-.84,1.89-.25.58.19-.41.38-.82.58-1.23a40.25,40.25,0,0,1,2.3-4.05c.43-.67.87-1.33,1.34-2,.21-.3.44-.6.66-.91.64-.88-.59.78-.61.78a6.5,6.5,0,0,0,.51-.64,64.19,64.19,0,0,1,7.05-7.42c.62-.55,1.24-1.1,1.88-1.63.35-.3,1.63-1.69,2.06-1.67a8.8,8.8,0,0,1-.9.7l.52-.4.92-.68c.7-.5,1.41-1,2.12-1.48a64,64,0,0,1,9.25-5.19,7.67,7.67,0,0,0,3.51-4.57,7.8,7.8,0,0,0-.77-5.9,7.7,7.7,0,0,0-4.57-3.51,8.79,8.79,0,0,0-5.89.77Z"/><path d="M77.12,154.14c8.58,5.34,17.86,9.55,27.07,13.67,11.42,5.12,23,9.94,34.47,14.9,6.47,2.79,12.92,5.63,19.31,8.57a8.21,8.21,0,0,0,5.89.77,7.75,7.75,0,0,0,4.57-3.51c1.78-3.37,1.14-8.68-2.74-10.46-22.22-10.25-45.18-18.91-67.14-29.7a155.11,155.11,0,0,1-13.71-7.45,7.73,7.73,0,0,0-10.47,2.74,7.82,7.82,0,0,0,2.75,10.47Z"/><path d="M80.83,100.28a146.83,146.83,0,0,0,33.74-14.56c5.32-3.06,10.53-6.41,16.06-9.09s11.22-5.18,16.82-7.81,11.1-5.14,16.05-8.65A8.24,8.24,0,0,0,167,55.6a7.81,7.81,0,0,0-.77-5.89c-2.09-3.23-7-5.21-10.47-2.74a93.1,93.1,0,0,1-13.89,7.62c-5.57,2.66-11.21,5.15-16.79,7.78C114.67,67.31,105.18,74,94.76,79c-1.42.68-2.86,1.28-4.29,1.94,2.43-1.12-.22.08-.8.31q-1.17.47-2.34.9c-3.47,1.29-7,2.4-10.57,3.4-3.85,1.07-6.62,5.46-5.34,9.41a7.79,7.79,0,0,0,9.41,5.34Z"/></g></g></svg>