<svg xmlns="http://www.w3.org/2000/svg" viewBox="0 0 185.87 183.95"><g id="Warstwa_2" data-name="Warstwa 2"><g id="Layer_1" data-name="Layer 1"><path d="M99.25,63.68q1.31-2.31,2.83-4.5c.5-.7,1-1.39,1.52-2.08s-.46.58-.43.55a5.11,5.11,0,0,0,.51-.64c.3-.37.6-.75.91-1.12,2.51-3,5.21-5.93,8-8.73,5.82-5.84,12-11.31,18-16.94,2.74-2.56,5.47-5.16,8.07-7.87a108.86,108.86,0,0,1,8.19-8l.38-.32c.79-.68-.64.51-.63.48s.57-.42.7-.5.52-.34.79-.5,1.46-.69.18-.15c-1.69.71.7-.22.69-.12s-2.1.1-.93.15a3.76,3.76,0,0,0,.88,0s-1.89-.38-1.11-.14c.12,0,.24.05.35.08.28.07.56.17.84.25,1.21.38-.62-.14-.59-.28,0,0,1,.49,1.08.52a49.11,49.11,0,0,1,4.34,2.63c3.75,2.46,7.53,4.88,11.17,7.5L166.48,25a5.47,5.47,0,0,0,.54.41c-.6-.35-.84-.66-.1-.07s1.75,1.42,2.6,2.16a47.59,47.59,0,0,1,5,5.06c.45-3.51.91-7,1.36-10.51-8.89,6.85-16.05,15.44-23.23,24-3.43,4.09-6.85,8.2-10.54,12.06-3.93,4.12-8.07,8-12.07,12.08A124,124,0,0,0,116.67,85.9a6.69,6.69,0,0,0,1,8.11c16.13,14,31.51,28.89,46.44,44.14,1.59,1.62,3.15,3.26,4.63,5,.28.32.56.65.83,1,.13.15.25.31.37.46.46.54-.73-.93-.61-.8a11.62,11.62,0,0,1,1.25,1.78c.15.25.49,1.24.72,1.35-.27-.13-.67-2-.39-.84a4.47,4.47,0,0,0,.16.63c.09.17-.08-2.07-.16-1.19a2.78,2.78,0,0,0,0,.5c.06.46.45-2,.15-1.17a4,4,0,0,0-.17.59c-.21.94.73-1.49.43-1-.09.15-.15.32-.24.48-.18.34-.38.67-.58,1-.52.83-1.07,1.64-1.57,2.48a81.48,81.48,0,0,1-4.23,7.13c-.13.17-.27.34-.39.52.09-.13,1-1.26.43-.56l-1.1,1.36c-.7.85-1.42,1.69-2.15,2.51-1.55,1.75-3.16,3.46-4.8,5.13a107.39,107.39,0,0,1-8.88,8.19h9.46c-8.33-6.84-15.93-14.44-23.7-21.89-3.81-3.65-7.8-7.11-11.6-10.77s-7.7-7.68-11.72-11.34a70.42,70.42,0,0,0-15.18-10.94c-2-1-4.76-1.41-6.76,0-13.77,9.74-25.3,22.05-36.59,34.48-2.67,3-5.37,5.86-8,8.85-1.09,1.24-2.17,2.48-3.31,3.67-.43.44-.86.88-1.32,1.3-.2.19-.41.37-.62.55a1.81,1.81,0,0,1-.41.34c-.06,0,1.5-1,.75-.6l-1.19.7c-.74.44,1.63-.49.8-.35a3.31,3.31,0,0,0-.72.19c-.28.14,2-.12.93-.13H37.9c-.92,0,1.77.36.84.12l-.87-.19c-.56-.15-1.09-.38-1.64-.55s1,.42.86.36-.32-.14-.47-.21l-1.31-.64c-1.57-.8-3.1-1.68-4.6-2.61-.82-.51-1.63-1-2.42-1.6l-1-.76c-.87-.63,1.18,1,.09.06-1.32-1.09-2.58-2.23-3.81-3.42-3-2.92-5.83-6-8.78-9v9.47c14.78-16.26,30-32.11,44.87-48.27q6-6.52,11.92-13.16a6.88,6.88,0,0,0,0-9.46A147.55,147.55,0,0,0,55.49,71c-4.9-4.13-10-8-15-12C35.12,54.75,30.13,50.09,25,45.57c-2.23-2-4.48-3.93-6.61-6-.93-.91-1.83-1.83-2.68-2.81-.41-.46-1.68-2.26-.27-.25-.37-.53-.76-1-1.11-1.6-.23-.37-.45-.75-.65-1.14-.11-.22-.2-.48-.33-.69,1,1.59.51,1.34.31.68-.15-.46-.28-.92-.4-1.39-.18-.71.18-1.1.1.83,0-.31-.06-.63-.06-.95s0-.48,0-.72c0-1.09-.39,1.87-.12.8.13-.5.25-1,.39-1.5.41-1.48-.75,1.51,0,.05A17.56,17.56,0,0,1,14.63,29c.18-.28.38-.55.57-.82.75-1.09-1.06,1.25-.17.22.52-.59,1-1.18,1.57-1.75a49.41,49.41,0,0,1,4-3.74,12.86,12.86,0,0,1,1.22-1c-1.59,1,.76-.59,1.26-1,.79-.62,1.57-1.25,2.35-1.89s1.41-1.16,2.12-1.74l1-.8c.44-.36,1.93-1.15.21-.18,1.09-.61,2.08-1.43,3.17-2.05s-1.62.56-.49.19c.28-.08.55-.18.83-.25.75-.19,1.12.11-.67,0a10.65,10.65,0,0,0,1.13,0c-1.6.14-1.43-.25-.61-.05.3.07.61.23.91.28-1.47-.23-1.1-.51-.35-.11.34.17.67.37,1,.57.15.1,1,.56,1,.72s-1.27-1.13-.27-.19c.83.78,1.64,1.58,2.46,2.37,5.8,5.57,12,10.85,18.2,15.92C67.05,43.43,76.77,55.36,87.58,66.2c2.48,2.48,7,2.66,9.46,0a6.81,6.81,0,0,0,0-9.47C86.86,46.53,77.71,35.2,66.63,25.93,60.39,20.71,54.08,15.58,48.14,10c-3-2.79-5.81-6-9.62-7.67a14.85,14.85,0,0,0-12.9.17C22.32,4.05,19.53,6.69,16.74,9c-.81.67-1.63,1.34-2.46,2a6.75,6.75,0,0,1-.61.48c.31-.19,1.28-1-.17.13-.64.5-1.29,1-1.92,1.52A49.83,49.83,0,0,0,7.28,17C2.29,22.17-1.09,28.49.33,35.8,1.44,41.52,6,46.25,10,50.1c5.09,4.79,10.36,9.47,15.66,14s10.58,8.49,15.88,12.72A156.19,156.19,0,0,1,57.74,91.53q2.22,2.35,4.34,4.8V86.87c-13.85,15.57-28.29,30.6-42.48,45.87q-7.2,7.74-14.31,15.55a6.84,6.84,0,0,0,0,9.47c5.3,5.3,10.22,10.93,16.4,15.27a54.16,54.16,0,0,0,10.54,5.76,14.82,14.82,0,0,0,9.49.84,18.39,18.39,0,0,0,8-5.24c2.56-2.64,4.92-5.49,7.4-8.21,5.75-6.31,11.44-12.68,17.42-18.78,3.31-3.39,6.72-6.7,10.26-9.85q2.67-2.38,5.46-4.64c.49-.4,1-.79,1.49-1.18s-.4.3-.42.32a8.34,8.34,0,0,0,.75-.58c1-.76,2-1.5,3-2.22H88.35a51.16,51.16,0,0,1,6.51,3.93c.55.39,1.09.79,1.62,1.19.73.54-1-.79-.29-.22l.7.56c1,.85,2.08,1.73,3.09,2.63,4,3.55,7.71,7.38,11.53,11.1s7.73,7.09,11.54,10.71c3.57,3.4,7.07,6.89,10.64,10.31,4.57,4.38,9.26,8.62,14.16,12.63,3,2.49,6.4,2.47,9.46,0a108.47,108.47,0,0,0,16.61-16.78,62.54,62.54,0,0,0,4-5.44c.73-1.16,1.28-2.41,1.93-3.61.91-1.69,2.1-3.22,3-4.93a11.52,11.52,0,0,0,.93-9.13c-1.28-3.65-3.78-6.63-6.33-9.47-3.4-3.8-7.09-7.34-10.7-10.95s-7.39-7.34-11.12-11c-9.24-9-18.69-17.8-28.43-26.25.35,2.7.69,5.4,1,8.11.43-.6.86-1.2,1.3-1.79l.58-.78c.56-.75-.74.92-.15.2,1-1.18,1.91-2.36,2.91-3.51,1.76-2,3.59-4,5.47-5.92,3.85-4,7.86-7.75,11.72-11.7,7.5-7.69,14-16.26,21.16-24.25,2-2.25,4.08-4.46,6.23-6.57q1.53-1.5,3.12-2.93c.46-.41.93-.81,1.4-1.21s2.37-1.89.65-.57c1.74-1.34,2.9-2.64,3.2-4.89A6.88,6.88,0,0,0,184,23.12c-5.81-6.89-13.63-11.81-21.09-16.72C159.58,4.23,156.34,2,152.57.69a13.66,13.66,0,0,0-10.88,1.05c-3.36,1.76-6.18,4.76-8.84,7.41-2.85,2.83-5.57,5.77-8.46,8.55C118.28,23.56,111.9,29.14,105.82,35,99.07,41.6,92.33,48.66,87.69,56.93c-1.71,3-.83,7.45,2.4,9.15a6.81,6.81,0,0,0,9.16-2.4Z"/></g></g></svg>