<svg xmlns="http://www.w3.org/2000/svg" viewBox="0 0 221.79 221.42"><g id="Warstwa_2" data-name="Warstwa 2"><g id="Layer_1" data-name="Layer 1"><path d="M158.36,73.32A10.78,10.78,0,0,0,154,70.84a6.52,6.52,0,0,0-.63-.18,6.19,6.19,0,0,1,2.78,1.66q2.07,4.7,1.68,2.73l.27,2a3,3,0,0,1,0-.52l-.27,2a8.73,8.73,0,0,1,.28-1.12,7.77,7.77,0,0,0-3.52-8.63C137.87,58.46,119,50.32,99.4,47.55a98.52,98.52,0,0,0-30.85.25A77.23,77.23,0,0,0,41.2,58.26,90.73,90.73,0,0,0,16.79,81.17a77.84,77.84,0,0,0-10.6,20.38A108.2,108.2,0,0,0,.58,149.07C2.3,165.78,7.48,181.92,18,195.23a55.56,55.56,0,0,0,17.41,14.6c7.51,4,15.56,5.64,23.82,7.23,17.13,3.3,34.94,5.75,52.37,3.47a82.65,82.65,0,0,0,26.55-7.71A64.4,64.4,0,0,0,159,196.12a80.64,80.64,0,0,0,8.78-13,158.24,158.24,0,0,0,7.7-17.43,115.6,115.6,0,0,0,7.78-31.13,65.49,65.49,0,0,0-2.83-26.35c-3.12-9.51-8.28-17.88-14.39-25.72a142.21,142.21,0,0,0-9.9-11.34A7.65,7.65,0,0,0,145.36,82c2.64,2.75,5.2,5.57,7.63,8.5.53.65,1.06,1.29,1.58,2,.11.15.23.3.35.44.73.93-.48-.62-.5-.65a14.85,14.85,0,0,0,.9,1.19c1,1.31,1.92,2.64,2.83,4a78.25,78.25,0,0,1,4.86,8.3c.32.64.63,1.29.93,1.94.16.35.31.7.47,1,.62,1.38-.7-1.72-.14-.32s1.09,2.8,1.55,4.23a57.48,57.48,0,0,1,2.23,9.78c-.1-.68-.19-1.36-.28-2a65.75,65.75,0,0,1-.13,17.39c.1-.68.19-1.36.28-2A108.31,108.31,0,0,1,162.48,157q-1,3-2.21,5.89c-.41,1-.82,2-1.24,3-.09.21-.42,1,0,0s0-.08-.09.19c-.22.52-.45,1-.68,1.57A96.35,96.35,0,0,1,153,178.28c-.89,1.5-1.83,3-2.83,4.42-.45.64-.91,1.28-1.38,1.91a6.53,6.53,0,0,1-.43.57c-.12.13,1.16-1.45.65-.84-.31.36-.59.74-.89,1.1a59.67,59.67,0,0,1-6.62,6.87c-.53.47-1.07.93-1.63,1.38-.29.25-.59.48-.89.72a11.3,11.3,0,0,0,.91-.7s-.58.44-.65.49c-1.2.9-2.44,1.74-3.71,2.54a63,63,0,0,1-7.83,4.14c-1.41.64,1.78-.71.37-.15l-1.17.46c-.78.31-1.57.59-2.36.87-1.54.53-3.11,1-4.68,1.42a83,83,0,0,1-10,2l2-.28c-11.79,1.59-23.77.92-35.54-.65l2,.28c-7.17-1-14.29-2.29-21.37-3.77a71.07,71.07,0,0,1-9.54-2.47c-.71-.26-1.41-.6-2.13-.82-.1,0,2,.87,1,.44l-.51-.23-1.15-.53q-2.07-1-4-2.19T37,192.79c-1.3-1,1.34,1.07.46.37l-.85-.69c-.6-.49-1.19-1-1.77-1.52a57.76,57.76,0,0,1-6.08-6.53c-.59-.73,1.32,1.74.35.45l-.66-.9q-.69-1-1.35-1.95-1.27-1.94-2.42-4T22.61,174c-.33-.69-.65-1.39-1-2.09s-.82-2,.21.5c-.17-.4-.34-.81-.5-1.21A90.28,90.28,0,0,1,16,150.06l.27,2a107.79,107.79,0,0,1,0-28l-.27,2a99.66,99.66,0,0,1,3.82-17.18c.43-1.34.89-2.67,1.38-4q.38-1,.78-2c.1-.27.21-.53.32-.79.41-1-.48,1.13-.44,1s.19-.44.28-.66a77.62,77.62,0,0,1,3.71-7.34,71.72,71.72,0,0,1,4.31-6.5c.62-.84-.79,1-.71.92s.36-.47.54-.69l1-1.2c.68-.83,1.38-1.65,2.09-2.46q2-2.28,4.15-4.42c1.43-1.41,2.91-2.78,4.45-4.08.7-.6,1.4-1.18,2.12-1.75,1.25-1-1.19.89-.16.13l1.24-.91a70.2,70.2,0,0,1,9.42-5.76c.92-.47,1.85-.92,2.79-1.34a9.8,9.8,0,0,1,1.33-.59c.17,0-1.75.72-1,.42l.83-.34c1.83-.73,3.7-1.39,5.59-2a75.73,75.73,0,0,1,11.62-2.54l-2,.28A88.88,88.88,0,0,1,97,62.53l-2-.28a117.66,117.66,0,0,1,21.41,5.1c1.78.61,3.56,1.25,5.32,1.92.82.32,1.65.64,2.46,1l1.23.51c1.11.45-.75-.32-.77-.33.29.11.58.25.87.37q5.16,2.23,10.15,4.84c3.84,2,7.59,4.15,11.27,6.43l-3.51-8.64c-1,3.28-.68,7.25,2,9.72a9.94,9.94,0,0,0,4,2.27,5.44,5.44,0,0,0,.54.15c.7.22.27,0-1.27-.57.62.35.27.06-1-.85,3,2.63,7.89,3.18,10.81,0,2.65-2.89,3.22-8,0-10.82Z"/><path d="M157.37,80.4c.28-.47.57-.93.89-1.38.13-.19.27-.36.39-.55-1.2,1.86-.85,1.06-.44.59.76-.88,1.53-1.74,2.36-2.56,1.86-1.84,3.88-3.54,5.91-5.21,4.25-3.49,8.64-6.86,12.44-10.86,4.1-4.31,7.77-9.06,11.76-13.48q6.38-7.06,13.11-13.8c5.07-5,10.3-9.94,15.76-14.57,3.06-2.59,2.87-8.18,0-10.81-3.26-3-7.55-2.77-10.82,0a300.21,300.21,0,0,0-27.54,26.91c-4.13,4.52-8,9.24-12.07,13.83-3.65,4.13-8.05,7.55-12.31,11-4.7,3.84-9.53,7.84-12.64,13.15-2,3.46-.91,8.54,2.74,10.47a7.78,7.78,0,0,0,10.46-2.75Z"/><path d="M163.88,15.91c16.79-2.17,33.48,2.14,50.26,2.18l-7.65-7.65V58.52c0,4,3.52,7.83,7.65,7.64a7.78,7.78,0,0,0,7.65-7.64V10.44a7.76,7.76,0,0,0-7.65-7.64c-16.78,0-33.47-4.36-50.26-2.19-2.11.27-3.84.67-5.41,2.24a7.83,7.83,0,0,0-2.24,5.41,7.75,7.75,0,0,0,2.24,5.41c1.39,1.27,3.46,2.49,5.41,2.24Z"/></g></g></svg>