<svg xmlns="http://www.w3.org/2000/svg" viewBox="0 0 237.96 219.4"><g id="Warstwa_2" data-name="Warstwa 2"><g id="Layer_1" data-name="Layer 1"><path d="M104.42,15.06c-2.07,21.27,2.48,42.42,5.31,63.39l-.27-2c1.64,12.26,2.72,24.66,1.52,37a7.65,7.65,0,0,0,7.64,7.65c4.48-.2,7.24-3.37,7.65-7.65C128.34,92.17,123.79,71,121,50.05l.27,2c-1.64-12.27-2.72-24.66-1.52-37a7.65,7.65,0,0,0-2.24-5.41,7.8,7.8,0,0,0-5.4-2.24c-4.48.2-7.24,3.37-7.65,7.65Z"/><path d="M148.47,15c4,1.21,8,2.5,11.92,4,1.91.71,3.79,1.47,5.68,2.23.75.3-1.16-.48-1-.42s.45.19.67.28l1.31.57c.91.41,1.83.83,2.73,1.26a100.49,100.49,0,0,1,9.64,5.2c1.56,1,3.09,2,4.59,3,.68.47,1.35,1,2,1.46l.53.4a7.7,7.7,0,0,1-.9-.7c.38.07,1,.79,1.3,1a79.91,79.91,0,0,1,7.81,7.25c1.25,1.32,2.46,2.69,3.63,4.09a21.29,21.29,0,0,1,1.75,2.17s-1.25-1.63-.55-.71c.1.15.21.29.32.43l1,1.29A121,121,0,0,1,213.58,70.4l.39.89c.25.6.23,1.41-.12-.28a13.23,13.23,0,0,0,.82,2c.52,1.32,1,2.64,1.51,4,.93,2.58,1.79,5.19,2.56,7.82a107.62,107.62,0,0,1,3.33,15.47l-.27-2a90.92,90.92,0,0,1,.09,24l.27-2a86,86,0,0,1-2.8,13q-.93,3.14-2.09,6.2l-.6,1.53c-.21.52-1.06,2.35,0,.09-.5,1.08-1,2.18-1.46,3.25a107.56,107.56,0,0,1-6.8,12.25q-2,3.14-4.22,6.14c-.36.5-.73,1-1.1,1.48l-.42.55c-.77,1,.26-.33.35-.44-.91,1.09-1.76,2.22-2.66,3.31A99.36,99.36,0,0,1,191.5,177q-2.37,2.21-4.87,4.25l-1.07.86-.61.49c-.73.58,1.36-1,.61-.48s-1.77,1.34-2.68,2a106.85,106.85,0,0,1-11,6.89q-2.78,1.51-5.63,2.88c-1,.45-1.91.89-2.87,1.32a9.55,9.55,0,0,0-1.46.63s1.89-.78.74-.32l-.92.38a118.19,118.19,0,0,1-28.2,7.45l2-.27a116.64,116.64,0,0,1-30.67.07l2,.28a126.53,126.53,0,0,1-25-6.33c-2-.68-3.89-1.42-5.81-2.2-.52-.21-2.31-1,0,0l-1.45-.63c-1-.42-1.94-.86-2.9-1.31q-5.92-2.77-11.56-6.12t-11-7.31l-1.3-1c-.39-.29-1.09-.89.57.45l-.64-.5c-.85-.67-1.7-1.35-2.53-2-1.66-1.38-3.29-2.81-4.87-4.28a104.18,104.18,0,0,1-9-9.45c-.68-.81-1.34-1.64-2-2.47s1,1.35.47.61l-.36-.48c-.39-.52-.78-1.05-1.16-1.59q-1.83-2.55-3.47-5.22c-1.21-2-2.34-4-3.37-6.12-.51-1-1-2.1-1.46-3.15s.31.72.32.76A6.18,6.18,0,0,0,20,144l-.55-1.44a65.38,65.38,0,0,1-3.46-13.77c.09.68.18,1.35.28,2a128.29,128.29,0,0,1,.41-33.45l-.27,2a164.73,164.73,0,0,1,4.51-22.11c1-3.63,2.14-7.23,3.41-10.77.64-1.79,1.31-3.56,2-5.32q.26-.66.54-1.32c.45-1.1-.85,2-.16.38.37-.86.75-1.72,1.14-2.57a103,103,0,0,1,11-18.82l.35-.47c.65-.86-.72.92-.66.86.28-.33.54-.69.81-1,.57-.71,1.15-1.41,1.75-2.1q1.62-1.89,3.38-3.64c1.18-1.19,2.4-2.33,3.68-3.41.59-.51,1.2-1,1.81-1.48.78-.63-1,.7-.9.69s.42-.32.54-.41c.37-.27.73-.53,1.11-.79a48,48,0,0,1,4.57-2.87c.78-.44,1.58-.85,2.38-1.24l1.22-.56.49-.22c.76-.34-2.14.87-.84.36a45.84,45.84,0,0,1,10.6-2.82l-2,.27a48,48,0,0,1,9.13-.31c4,.25,7.82-3.69,7.65-7.65a7.83,7.83,0,0,0-7.65-7.64c-17.29-1-33.37,7-44.82,19.62C19.28,37.35,11.56,54.33,6.6,71.51a176.62,176.62,0,0,0-5.42,27,137.33,137.33,0,0,0-1,23.55,104,104,0,0,0,1.48,13.4A74.25,74.25,0,0,0,6.86,152c4.51,10.37,11.48,19.71,19.4,27.73,16.34,16.55,37.29,28,59.42,34.7s46.2,6.49,68.32.22c21.78-6.17,42.28-18.4,56.85-35.88a125.67,125.67,0,0,0,20.41-33.37A92.56,92.56,0,0,0,238,111a110,110,0,0,0-6.34-36.14,136,136,0,0,0-16.29-33,96.57,96.57,0,0,0-21.46-22.41C185.78,13.38,176.64,9,167.24,5.29c-4.82-1.88-9.74-3.52-14.7-5-3.83-1.15-8.51,1.38-9.41,5.34A7.81,7.81,0,0,0,148.47,15Z"/></g></g></svg>