<svg xmlns="http://www.w3.org/2000/svg" viewBox="0 0 240.76 186.98"><g id="Warstwa_2" data-name="Warstwa 2"><g id="Layer_1" data-name="Layer 1"><path d="M32.72,15.3c23.47,0,46.9,1.41,70.35,1.92,11.7.25,23.41.28,35.11-.2,11.42-.46,22.82-1.32,34.26-1.38a243.18,243.18,0,0,1,33.45,2.47l-2-.27a58.24,58.24,0,0,1,7.86,1.49c.52.15,1,.3,1.54.48.83.28,2.78,1.32,0-.06a26.2,26.2,0,0,1,2.66,1.44l.59.41c.67.45-1.78-1.48-.75-.56.38.34.77.68,1.13,1.05s.65.74,1,1.11c-1.67-1.91-.62-.84,0,.08a32,32,0,0,1,1.63,3.13c-1.32-2.73-.2-.45.08.33s.47,1.4.68,2.11A92.41,92.41,0,0,1,223,42.34c-.09-.68-.18-1.36-.28-2,1.73,13,1,26.06.77,39.09-.1,5.63-.12,11.27-.26,16.9-.14,5.3-.29,10.62,0,15.92.26,5.82,1.64,11.42,2.42,17.16-.09-.67-.19-1.35-.28-2a35.84,35.84,0,0,1,0,9.08l.27-2c-.26,1.92-.53,3.84-.79,5.76l.27-2c-.49,3.64-1,7.29-1.82,10.89-.36,1.64-.78,3.28-1.28,4.89-.22.68-.45,1.35-.69,2-.14.37-.29.74-.44,1.11-.39,1,.47-1.06.43-1a4.54,4.54,0,0,0-.3.67,28.83,28.83,0,0,1-2.27,4.06c-.18.28-.39.55-.58.83-.52.76,1.35-1.67.31-.4-.49.6-1,1.18-1.57,1.74s-1.15,1.11-1.77,1.63a2.68,2.68,0,0,0-.47.38s1.68-1.25.81-.62l-1,.73a36.87,36.87,0,0,1-4.73,2.61c-.47.22-1.3.46.82-.34l-.86.35c-.54.21-1.08.4-1.62.59-1.15.39-2.32.73-3.48,1.07a50,50,0,0,1-7.37,1.53l2-.27c-9.47,1.24-19.06.59-28.56.13-4.69-.23-9.39-.44-14.09-.34-5.29.11-10.57.58-15.85.8-22.31.91-44.67.5-67-.54-6.09-.28-12.17-.62-18.26-1-5.64-.35-11.33-.53-16.94-1.26l2,.27a50.28,50.28,0,0,1-8.93-2c-.63-.21-1.24-.43-1.85-.67-1.41-.55,1.05.47.6.27l-.92-.43A27,27,0,0,1,26,164c-.23-.15-.45-.31-.67-.47a3.35,3.35,0,0,0-.44-.32,8.67,8.67,0,0,0,1,.79c-.47-.41-1-.8-1.42-1.22s-.83-.81-1.23-1.23c-.21-.23-.42-.46-.62-.7s-1.12-1.4-.16-.17.23.3,0,0-.37-.52-.54-.79c-.36-.54-.69-1.1-1-1.66s-.58-1.09-.84-1.65c-.14-.29-.25-.64-.42-.92s.73,1.85.49,1.15c-.08-.24-.19-.47-.27-.7a44.86,44.86,0,0,1-2.38-9.89l.27,2c-.82-6.34-.75-12.82-.92-19.2-.19-6.92-.32-13.85-.49-20.77C16.06,95,15.1,81.82,15.33,68.59a182.44,182.44,0,0,1,1.53-21l-.27,2c.56-4.15,1.28-8.29,1.92-12.43A96.66,96.66,0,0,1,21,25c.28-1,.59-1.93.92-2.88.16-.44.33-.87.49-1.3q.46-1.14-.24.54l.38-.84A44.21,44.21,0,0,1,25.13,16c-1.23,2-.87,1.09-.43.6.24-.27.51-.52.76-.78.55-.56,1.2-.38-.78.58.2-.09.39-.26.58-.37s1.36-.63-.13,0-.46.2-.11.1a9.62,9.62,0,0,1,1.49-.31l-2,.28c3.44-.44,6.86-.42,10.29-1.08H30.69c-2.12-.76-1.41-.72-.94-.36L27,11.92l.05.07L26,8.13v0q1.11-2.7,2.24-5.4l0,0,3.37-2-.08,0,2-.28a1.21,1.21,0,0,1-.38,0l2,.28c-.68-.14,1.81.93,1.35.58L39.26,4.2c.24.55.47,1.1.7,1.65V9.92l0-.11-2,3.37.1-.12a8.31,8.31,0,0,0,2.24-5.41,7.8,7.8,0,0,0-2.24-5.41C35.37-.29,30-1.11,27.32,2.24,25.51,4.53,24.43,7,25.21,9.92a8.15,8.15,0,0,0,3.63,4.78,8.62,8.62,0,0,0,8.62.13,7.84,7.84,0,0,0,0-13.37A9.11,9.11,0,0,0,32.72,0C31.49.06,30.26.38,29,.56l2-.28c-2.19.29-4.4.27-6.59.53a16.54,16.54,0,0,0-9.63,4A25,25,0,0,0,9,13.45a60.32,60.32,0,0,0-4,12.28c-.77,3.65-1.29,7.36-1.85,11.05C2.53,41.17,1.79,45.54,1.26,50A191.48,191.48,0,0,0,0,72.67c0,8.27.49,16.52.78,24.79.3,8.5.46,17,.66,25.5q.15,6.33.35,12.66c.12,3.83.15,7.7.59,11.52.74,6.4,2.07,12.55,5.11,18.29,5.31,10,15.6,15.71,26.5,17.62,7.91,1.38,16,1.59,24,2.06q12.84.75,25.68,1.25c17.13.64,34.29.85,51.42.31,8.11-.25,16.24-1.06,24.35-1,7.25,0,14.49.6,21.73.84a104.2,104.2,0,0,0,23.34-1.43c6.35-1.25,13-3.53,18.32-7.35a34.28,34.28,0,0,0,11.23-13.16,62.49,62.49,0,0,0,4.82-16.4c.56-3.39,1-6.79,1.44-10.19l-.27,2a47.88,47.88,0,0,0,.26-14.68c-.46-3.29-1.25-6.53-1.7-9.82l.27,2c-1.16-8.94-.44-18.1-.25-27.08.22-10.82.54-21.67.46-32.49-.08-10.6-1-21.37-3.69-31.64-1.84-7-5-13.29-10.84-17.68C220.06,5.26,214.28,4,208.81,3.21A256.66,256.66,0,0,0,179.4.42c-11.39-.3-22.77.39-34.15,1s-22.91.8-34.38.67C87.71,1.78,64.57.37,41.41.06c-2.9,0-5.79,0-8.69-.06-4,0-7.83,3.52-7.64,7.65a7.77,7.77,0,0,0,7.64,7.65Z"/><path d="M40.53,46.17l.86.34c-2.45-.92-1.12-.48-.54-.21s1.31.61,1.95.94c1.24.65,2.46,1.35,3.64,2.11s2.33,1.6,3.48,2.44c.39.29-1.6-1.26-.54-.41l.74.6c.59.48,1.16,1,1.72,1.46a119.87,119.87,0,0,1,12.45,13c7.81,9.22,15,19.15,24.27,27,10.52,9,24.65,16.17,38.77,12.12,7.5-2.15,14-6.85,19.64-12,5.32-4.85,10-10.33,14.87-15.63,5.42-5.91,11.18-11.6,17-17.14,3-2.86,6.08-5.65,9.31-8.25l1.07-.85c1.09-.86-1.21.91-.1.08.85-.64,1.7-1.27,2.57-1.88,1.66-1.17,3.36-2.28,5.11-3.31s3.53-2,5.36-2.86c3.62-1.73,4.85-7.19,2.74-10.46-2.4-3.72-6.59-4.6-10.46-2.75-13.15,6.29-23.87,16.7-34,27-4.58,4.65-9.11,9.31-13.49,14.15a137.28,137.28,0,0,1-13,13.08l-.9.75c-.22.17-1.6,1.26-.44.36s0,0-.15.1c-.41.3-.82.6-1.24.89a42.13,42.13,0,0,1-4.13,2.52c-.64.34-1.29.64-1.95,1-1.3.61,1.84-.7.5-.22-.45.17-.89.34-1.34.49a26.36,26.36,0,0,1-4.47,1l2-.27a24,24,0,0,1-5.75,0l2,.27a32.56,32.56,0,0,1-4.87-1.07c-.66-.19-1.31-.4-2-.63l-1.19-.44c-.14-.06-.29-.13-.44-.18-.74-.26,2,.88.82.34a49.67,49.67,0,0,1-7.82-4.41c-.57-.4-1.13-.8-1.69-1.22a2.63,2.63,0,0,0-.51-.39c-.11,0,1.46,1.15.91.7l-1-.8c-1.22-1-2.4-2.05-3.56-3.13-2.32-2.17-4.52-4.47-6.65-6.83C81.43,63.9,73.94,53,64.35,44.14A61.89,61.89,0,0,0,44.59,31.42a7.69,7.69,0,0,0-5.89.77,7.82,7.82,0,0,0-3.52,4.57c-1,4.38,1.34,7.86,5.35,9.41Z"/><path d="M150.15,117.52a40.25,40.25,0,0,1,5.26,3.19c.35.25.69.52,1.05.77-1.85-1.3-.44-.33,0,0,.78.65,1.54,1.31,2.29,2,3,2.73,5.74,5.72,8.48,8.7a105.4,105.4,0,0,0,8.23,8.28c3.56,3.08,7.36,5.89,11.1,8.75l1.49,1.14.56.43-.26-.2c.9.7,1.79,1.41,2.68,2.14,1.77,1.44,3.49,2.95,5.12,4.56,2.84,2.82,8,3,10.81,0a7.79,7.79,0,0,0,0-10.82,110.22,110.22,0,0,0-10.63-8.89c-1.74-1.34-3.49-2.66-5.22-4-.35-.27-1.11-.9.44.34l-.55-.43-1.27-1c-.82-.65-1.64-1.32-2.45-2-6.16-5.18-11.07-11.6-16.92-17.1a54.48,54.48,0,0,0-12.48-9.11c-3.56-1.81-8.45-1.06-10.46,2.74-1.84,3.49-1.07,8.53,2.74,10.47Z"/><path d="M44.78,156.85a99.47,99.47,0,0,0,21.27-13.54c5.27-4.33,10.07-9.18,15-13.83,3.06-2.86,6.2-5.64,9.49-8.24a7.68,7.68,0,0,0,2.24-5.41,7.65,7.65,0,0,0-7.65-7.65,8.88,8.88,0,0,0-5.4,2.24c-5.52,4.37-10.56,9.25-15.65,14.1-2.46,2.33-4.94,4.65-7.53,6.84-.6.51-1.21,1-1.82,1.51l-1.09.87c-1.28,1,1.08-.81.11-.08-1.45,1.08-2.92,2.14-4.43,3.14a92.94,92.94,0,0,1-12.3,6.85,7.7,7.7,0,0,0-3.52,4.57,7.82,7.82,0,0,0,.78,5.89c2.41,3.75,6.57,4.55,10.46,2.74Z"/></g></g></svg>