<svg xmlns="http://www.w3.org/2000/svg" viewBox="0 0 182.05 237.58"><g id="Warstwa_2" data-name="Warstwa 2"><g id="Layer_1" data-name="Layer 1"><path d="M101.61,235.38a265.68,265.68,0,0,0,17-21.12c4.78-6.68,9.13-13.66,13.42-20.66,5.85-9.52,11.58-19.1,17.73-28.42,6-9.16,12.25-18.2,17.64-27.76C173,127.63,177.93,117,180.39,106a73.63,73.63,0,0,0-.34-32.56,98.13,98.13,0,0,0-12.54-29.59A126.42,126.42,0,0,0,146.26,18,61.61,61.61,0,0,0,120.19,3.87C110.2,1.19,99.71.49,89.41.08A86.73,86.73,0,0,0,63.3,2.79,93.6,93.6,0,0,0,37.53,14.08a87.42,87.42,0,0,0-22.89,21C8.27,43.51,4.48,53.36,2.51,63.66A154.4,154.4,0,0,0,.08,97a78.67,78.67,0,0,0,7.32,31.1c4,8.74,9.84,16.47,15.74,24,3.09,3.94,6.26,7.82,9.37,11.75.18.22.35.46.54.68-.11-.13-1.12-1.47-.3-.39L34,165.73l2.75,3.69c1.57,2.13,3.14,4.28,4.69,6.44,6.18,8.57,12.29,17.19,19,25.39,6.22,7.63,13.25,14.5,19.61,22,.73.86,1.44,1.72,2.15,2.58.32.4.65.8,1,1.2l.47.6c.87,1.09-1-1.31-.41-.53,1.11,1.48,2.21,3,3.17,4.54,2.07,3.42,7,5,10.46,2.75a7.79,7.79,0,0,0,2.74-10.47,90.72,90.72,0,0,0-8.59-11.33q-4.14-4.91-8.62-9.51c-3.92-4-7.58-8.31-11.12-12.65-.83-1-1.66-2-2.47-3.07-.35-.45-.71-.9-1.06-1.36-.76-1,.36.47.41.54-.26-.33-.51-.67-.77-1q-2.28-3-4.5-6c-6.64-9.07-13-18.35-20-27.15-3.11-3.9-6.26-7.76-9.32-11.7L33,140c1.35,1.71.76,1,.47.61l-1.08-1.42c-.74-1-1.48-2-2.2-3-1.35-1.86-2.66-3.75-3.9-5.68-1.36-2.11-2.64-4.27-3.82-6.48-.59-1.11-1.15-2.23-1.69-3.36L20,119c-.49-1.09.31.75.33.78-.16-.34-.29-.7-.44-1.06a67.35,67.35,0,0,1-4.12-15.8l.27,2a108.71,108.71,0,0,1-.65-16.63,151.22,151.22,0,0,1,1.24-16.88c-.1.68-.19,1.36-.28,2a99.36,99.36,0,0,1,2-10.7c.4-1.6.85-3.2,1.36-4.77.26-.81.53-1.61.82-2.41L21,54.42c.09-.25.81-2,.24-.63s0,0,.11-.22c.17-.38.34-.75.52-1.12.35-.73.72-1.46,1.1-2.17a51.09,51.09,0,0,1,2.76-4.47c.38-.56.77-1.12,1.17-1.67l.72-1c.91-1.23-1.16,1.46-.21.27,1.1-1.36,2.21-2.7,3.39-4a75.45,75.45,0,0,1,6.88-6.62c.5-.43,1-.85,1.51-1.26.31-.25.63-.48.93-.74-1.8,1.54-.74.57-.3.24,1.35-1,2.74-2,4.15-2.93a87.32,87.32,0,0,1,8-4.68c1.24-.64,2.49-1.24,3.76-1.82.68-.32,1.38-.61,2.06-.91-2.56,1.14.3-.11.94-.36a82.28,82.28,0,0,1,18.51-4.81l-2,.27a82.49,82.49,0,0,1,14.23-.44c5.88.23,11.76.59,17.6,1.35l-2-.27A79.34,79.34,0,0,1,123.24,21c1.36.53-1.79-.79-.46-.2l1,.46c.67.31,1.34.63,2,1q2,1,3.88,2.21c.64.4,1.27.82,1.89,1.25s2.65,2.11.6.39c1.31,1.1,2.63,2.17,3.87,3.34q3.93,3.73,7.52,7.79,1.78,2,3.5,4.13c.37.46,2.2,2.94.75.92.52.73,1.09,1.43,1.62,2.15a106.66,106.66,0,0,1,11,18.61l.54,1.19.34.79c-.48-1.16-.57-1.37-.26-.63.37.93.75,1.86,1.1,2.8.65,1.74,1.24,3.49,1.78,5.27a76.46,76.46,0,0,1,2.52,11.49c-.1-.68-.19-1.35-.28-2a65.14,65.14,0,0,1,.09,17l.27-2a73.9,73.9,0,0,1-4,15.44c-.42,1.15-.86,2.3-1.32,3.43-.12.29-.23.57-.35.85-.6,1.49.58-1.33.15-.35l-.93,2.1q-1.66,3.64-3.53,7.19c-5.1,9.69-11.19,18.79-17.24,27.89-6.24,9.4-12.16,19-18,28.6-4.46,7.31-8.91,14.63-13.78,21.68q-1.85,2.66-3.75,5.25l-2,2.62c-.31.41-.87,1.1.58-.75-.2.27-.41.53-.62.8l-1.06,1.34c-3.17,4-6.48,7.85-9.86,11.66-2.66,3-3.17,7.91,0,10.82,2.9,2.66,8,3.19,10.82,0Z"/><path d="M99.47,117.43c-4.74,0-9.61.63-14.34,0l2,.27a18.12,18.12,0,0,1-3.68-.89c-.65-.23-1.88-1,.48.23-.27-.14-.56-.25-.84-.39-.69-.35-1.37-.73-2-1.13s-1.5-1-2.23-1.47l-1-.75c-.63-.47-.47-.35.48.38l-.74-.58A32.11,32.11,0,0,1,74,109.75q-.42-.47-.81-.93l-.44-.55c.25.34.51.67.76,1a10.14,10.14,0,0,1-1.39-2,31.81,31.81,0,0,1-2.28-4.17c-.68-1.49.12.58.24.6a6.27,6.27,0,0,1-.48-1.25c-.26-.73-.49-1.47-.7-2.22A35.17,35.17,0,0,1,68,95.72c.09.68.19,1.35.28,2a36.27,36.27,0,0,1,0-9.54l-.27,2a38.16,38.16,0,0,1,1-4.84c.23-.79.48-1.58.76-2.36.13-.36.26-.72.41-1.08.67-1.72-.72,1.52-.06.16a41.6,41.6,0,0,1,2.36-4.36c.45-.7.93-1.37,1.41-2.05.71-1-1.23,1.51-.27.38.32-.39.64-.77,1-1.14a33,33,0,0,1,3.62-3.48c.12-.09.41-.4.53-.42s-1.51,1.11-.88.68c.33-.22.64-.47,1-.69.75-.52,1.53-1,2.32-1.46,1.43-.82,2.89-1.57,4.38-2.27l1-.44c.34-.15,1.56-.68.17-.09s-.17.08.16,0L88,66.27a41.79,41.79,0,0,1,8.6-2.21l-2,.28a30.47,30.47,0,0,1,8.15-.06l-2-.27a26.61,26.61,0,0,1,3.75.8c.56.16,1.12.35,1.67.55s2,.93-.76-.34l.88.4a23.35,23.35,0,0,1,3.11,1.78c.69.46,2.43,2,0-.1.48.4,1,.79,1.42,1.21a27,27,0,0,1,2.41,2.49l.53.66c.59.71-1.49-2-.5-.65.35.48.69,1,1,1.48A33.34,33.34,0,0,1,116,75.36c.27.55.52,1.11.78,1.67.51,1.15-.87-2.15-.36-.85.11.31.23.61.35.91a39.73,39.73,0,0,1,2,8.26l-.27-2a41.92,41.92,0,0,1,0,10.85l.27-2A39.07,39.07,0,0,1,117,99.75c-.22.6-.45,1.19-.69,1.78,1.09-2.75.28-.66-.18.27a32.52,32.52,0,0,1-1.87,3.3c-.35.53-.72,1.05-1.08,1.56-.1.14-.22.26-.31.4s1.44-1.79.83-1.07c-.24.28-.46.57-.7.85a30.62,30.62,0,0,1-2.76,2.82c-.46.41-.94.79-1.41,1.19,2.47-2.07.34-.28-.39.2a30.44,30.44,0,0,1-3.61,2c-.33.15-.67.29-1,.45,2.78-1.31,1.09-.45.39-.19s-1.58.55-2.38.78a36.39,36.39,0,0,1-5.16,1.08l2-.27c-1.19.15-2.38.25-3.58.31-4,.18-7.83,3.38-7.64,7.65.17,4,3.36,7.84,7.64,7.64,7.72-.36,15.63-2.37,22-6.94a38.48,38.48,0,0,0,13.07-15.9,47.56,47.56,0,0,0-1-40.06A35.22,35.22,0,0,0,116,53.28,33.38,33.38,0,0,0,95.77,48.9a48,48,0,0,0-12.46,2.87,54.73,54.73,0,0,0-13.54,7.06A42,42,0,0,0,58.2,71.89,45.28,45.28,0,0,0,53,88.53a40.9,40.9,0,0,0,9.45,31.1,43.32,43.32,0,0,0,7.35,6.64,34.26,34.26,0,0,0,6.48,4,29,29,0,0,0,9,2.49,41.3,41.3,0,0,0,6.19.17c2.68-.09,5.35-.2,8-.2,4,0,7.84-3.51,7.65-7.65a7.78,7.78,0,0,0-7.65-7.65Z"/></g></g></svg>