<svg xmlns="http://www.w3.org/2000/svg" viewBox="0 0 239.99 234.28"><g id="Warstwa_2" data-name="Warstwa 2"><g id="Layer_1" data-name="Layer 1"><path d="M112,1.94C99.84,1.93,87.68.8,75.5.28,69.22,0,62.93-.11,56.64.13A99.49,99.49,0,0,0,37.48,2.32C27.33,4.73,18,10.09,12.14,18.87,7.07,26.46,5.55,35.81,4.73,44.71c-.42,4.56-.59,9.13-.8,13.7C3.68,64,3.1,69.51,2.69,75.06,1.78,87.18,1,99.32.49,111.47c-1,25.17-.75,50.55,3.33,75.47,1.36,8.32,2.69,17.19,7.82,24.14a43.16,43.16,0,0,0,16.6,13.42c14.77,6.93,31.48,8.73,47.6,9.46s32.16,0,48.23-.41c6.32-.18,12.65-.36,19-.13,10.36.39,20.65.74,31-.13,12.5-1,24.87-3.34,36.31-8.62a37.24,37.24,0,0,0,12.49-9.06,50.57,50.57,0,0,0,8.61-14.27c4-9.66,5.54-20.16,6.73-30.49.56-4.86,1-9.74,1.45-14.62.64-6.75.23-13.67.23-20.45v-21.3c0-4-3.51-7.83-7.64-7.65a7.78,7.78,0,0,0-7.65,7.65v27.59c0,4.34.28,8.79-.14,13.12-.29,3-.55,6-.84,9-.35,3.62-.74,7.23-1.22,10.84.1-.68.19-1.36.28-2a125.7,125.7,0,0,1-2.77,14.78c-.59,2.28-1.27,4.54-2.08,6.75-.18.5-.37,1-.57,1.49a6.9,6.9,0,0,1-.39,1s.84-1.92.36-.87-1,2.09-1.5,3.11-1.09,2-1.7,2.92c-.27.42-.55.84-.83,1.25-.41.58-1.86,2.23-.09.17a41.41,41.41,0,0,1-4.59,4.68c-.4.35-1.11.76.78-.58l-.67.49c-.4.29-.82.57-1.24.84a35.36,35.36,0,0,1-3.47,1.9l-1.62.77c-.37.16-.73.35-1.11.49.06,0,1.85-.76.71-.31s-2.56,1-3.86,1.44a99.6,99.6,0,0,1-18.92,4.25l2-.27a190.53,190.53,0,0,1-33.6,1.13c-5.91-.28-11.78-.37-17.7-.25-15,.31-30,1.07-45.08.82a228.12,228.12,0,0,1-26.51-1.77l2,.28a118.74,118.74,0,0,1-14.49-2.79c-2.22-.59-4.41-1.25-6.56-2L37.67,212l-.7-.28-.35-.14c-.89-.36,1.22.52,1.14.48-.94-.49-1.95-.86-2.9-1.34a43.21,43.21,0,0,1-5.26-3.07c-.41-.28-.8-.57-1.2-.86-1-.69,1.21,1,.84.65l-.61-.49c-.74-.6-1.45-1.24-2.13-1.91s-1.31-1.36-1.91-2.08c-.16-.19-.31-.4-.48-.59-.32-.37,1.34,1.82.68.87-.27-.39-.55-.76-.81-1.15a25.52,25.52,0,0,1-1.42-2.42c-.22-.42-.42-.85-.62-1.28-.51-1.07.6,1.49.42,1l-.28-.72a57.52,57.52,0,0,1-2.31-9.26c-.84-4.21-1.53-8.44-2.11-12.7l.27,2c-2.55-19-2.93-38.29-2.46-57.45.46-18.74,1.8-37.45,3.27-56.13.64-8.21.67-16.49,1.75-24.66l-.27,2A57.6,57.6,0,0,1,22,33.86c.21-.7.43-1.38.67-2.06.11-.32.22-.63.34-.94s.71-1.73.09-.27-.08.22.08-.11.28-.59.42-.88c.32-.63.65-1.24,1-1.84s.74-1.18,1.14-1.75c.19-.26.41-.51.58-.79s-1.25,1.56-.76,1l.45-.55a25.93,25.93,0,0,1,3.06-3.05c.26-.23,1.35-1.08.15-.16s-.1.08.2-.13c.64-.45,1.29-.88,2-1.29s1.33-.77,2-1.12l1.06-.52c.31-.15,2.08-.92.69-.33s.23-.08.6-.22l1.41-.5c1.05-.36,2.12-.68,3.2-1a55.25,55.25,0,0,1,7.13-1.32l-2,.27c17.44-2.26,35.15-.42,52.62.48,4.65.24,9.31.42,14,.43,4,0,7.84-3.52,7.65-7.65A7.79,7.79,0,0,0,112,1.94Z"/><path d="M190.65,4.64a24.28,24.28,0,0,1-1.76,2.83c-.44.63-.57.17.38-.49a5.21,5.21,0,0,0-.57.69c-.45.54-.91,1.05-1.38,1.56-1.75,1.9-3.61,3.68-5.45,5.49-4,3.89-7.94,7.75-11.82,11.73s-7.78,8.06-11.77,12S150,46.31,146,50.36s-7.87,8.07-11.68,12.22c-3.67,4-7.19,8.12-11,12-7.4,7.63-15.57,14.57-22.29,22.83-3.16,3.9-6.48,8.09-7.77,13-1.22,4.66-.63,9.46-1.25,14.18.09-.67.19-1.35.28-2-.78,5.64-2.12,11.28-2.16,17a7.68,7.68,0,0,0,4.7,7c2.65,1.12,6.36.72,8.36-1.58.68-.79-1,.81-1.13.82.08,0,.22-.12.29-.17.28-.16.89-.38-.57.23-1.66.7.19,0,.69-.13A42.06,42.06,0,0,1,107,145l-2,.27c5.64-.75,11.31-1.27,16.93-2.21a71.28,71.28,0,0,0,7.93-1.71,19.35,19.35,0,0,0,4.74-1.74,24.53,24.53,0,0,0,2.44-1.86c6.13-4.88,11.83-10.39,17.57-15.73,7.66-7.12,15.25-14.31,22.29-22.06,4.7-5.18,9.25-10.51,14-15.63s10-10,14.86-15.1c5.33-5.63,10.54-11.41,16.22-16.71,2.13-2,4.4-3.84,6.47-5.9a85.88,85.88,0,0,0,7.68-9.13c1.89-2.5,1.15-7.26-1.2-9.27-9.91-8.49-20.21-16.54-30-25.13-3-2.63-7.9-3.18-10.82,0-2.65,2.89-3.22,8,0,10.82,9.83,8.59,20.13,16.63,30.05,25.13l-1.2-9.27c-.08.11-1.2,1.46-.36.48s-.23.28-.33.4c-.39.48-.78,1-1.18,1.43-.88,1-1.8,2.06-2.76,3.05-1.6,1.65-3.31,3.2-5,4.72-4.61,4-8.84,8.51-13.05,13-8.83,9.37-18.11,18.29-26.66,27.92-7.07,8-14.24,15.73-21.94,23.08q-9.44,9-19.15,17.71-2,1.8-4.06,3.56c-.53.46-1.07.91-1.61,1.36l-.59.47c-.91.74,1.92-1.28,1-.74-1.16.65,2.17-.7.76-.27-.6.18-1.19.39-1.79.57-1.31.38-2.63.71-4,1-2.8.61-5.63,1.06-8.48,1.44l2-.27c-4.61.62-9.23,1.06-13.82,1.74-3.25.47-7.17,1.19-9.44,3.8l13.06,5.41a46.74,46.74,0,0,1,.46-5.79l-.27,2c.56-4.1,1.37-8.16,1.82-12.28.34-3,.07-6.12.47-9.17l-.27,2a15.54,15.54,0,0,1,.37-1.9c.09-.34.2-.67.3-1,0-.13.1-.25.13-.37.17-.65-.94,2-.41,1a36.76,36.76,0,0,1,2.25-3.77l.76-1.07c.31-.42,1.56-1.89.08-.15.75-.89,1.46-1.81,2.23-2.69,1.5-1.75,3.07-3.45,4.67-5.1,6.73-7,14-13.36,20.46-20.62,6.72-7.59,13.65-15,20.87-22.13,3.69-3.64,7.51-7.15,11.17-10.81s7.11-7.26,10.66-10.9c3.91-4,7.94-7.91,11.94-11.84s8.15-7.77,10.69-12.69c1.83-3.55,1-8.47-2.75-10.46-3.5-1.86-8.5-1.06-10.46,2.74Z"/></g></g></svg>