<svg xmlns="http://www.w3.org/2000/svg" viewBox="0 0 246.97 253.27"><g id="Warstwa_2" data-name="Warstwa 2"><g id="Layer_1" data-name="Layer 1"><path d="M80.4,58.94c7.14-4.46,15-9.38,18.94-17.11,3.17-6.16,2.27-13.47,3.13-20.14-.09.68-.19,1.35-.28,2a25.5,25.5,0,0,1,.72-3.58c.07-.25.16-.49.24-.74.36-1.17-.25.68-.39.85a10.24,10.24,0,0,0,.75-1.39c.65-1.11-.57.83-.62.77s.46-.47.5-.52c.5-.59-2,1.42-.63.52a15.93,15.93,0,0,1,2.08-1.11c.93-.45-1.86.74-1.07.45l.57-.22c.44-.17.89-.32,1.34-.46.93-.29,1.87-.55,2.81-.77,2.24-.53,4.51-.91,6.78-1.23l-2,.28a156.25,156.25,0,0,1,32.14-.84L138,10.12c1.59,5.57,2.66,11.24,3.81,16.91.56,2.74,1.18,5.46,1.93,8.16.22.77.42,1.55.67,2.31a8.32,8.32,0,0,0,5.49,5.82c.52.18,1,.32,1.55.51s1.45.67-.63-.3l1,.46c5.32,2.57,10,6.4,15,9.48a18.39,18.39,0,0,0,10,3A26.32,26.32,0,0,0,187,53.84c5.6-2.45,10.39-6.33,15.49-9.65L193.24,43c3.32,4,7.68,7.14,11.67,10.43,2.35,2,4.68,3.92,6.88,6,1.06,1,2.09,2.06,3.07,3.15.47.53.94,1.07,1.39,1.62.1.12.19.25.3.37.43.51-.71-1-.71-.91,0,.24.59.79.75,1a31.06,31.06,0,0,1,2.19,3.79c.38.78-.72-1.83-.43-1,.06.18.14.36.2.54s.22.63.31.94a15.4,15.4,0,0,1,.47,2.2l-.27-2a14.07,14.07,0,0,1,0,3.37c.1-.68.19-1.35.28-2a9.78,9.78,0,0,1-.36,1.69,3.27,3.27,0,0,0-.2.55c0,.06.79-1.68.47-1.13-.18.32-.32.66-.5,1-.33.59-.7,1.16-1.08,1.71-.19.27-1.13,1.51-.25.38s-.11.13-.32.39c-2.17,2.64-4.55,5.1-6.69,7.77-2.63,3.27-5.08,6.65-6.21,10.77a47.18,47.18,0,0,0-1.43,13.18c.07,4.81.51,9.61.52,14.42,0,3.59,2.41,6.21,5.62,7.37,2.3.84,4.61,1.69,6.89,2.59q1.74.68,3.45,1.38c.23.09,1.27.53.17.06s-.06,0,.17.08l1.95.85a83.93,83.93,0,0,1,13.4,7.38l-3.51-4.57c.07.39.13.77.18,1.16-.09-.68-.18-1.36-.28-2,.94,7.37.11,15.06-.87,22.38l.27-2a110.4,110.4,0,0,1-3.26,16.12c-.15.51-.31,1-.47,1.53-.09.3-.19.59-.29.88-.23.68-.69,1.13.3-.6-.28.49-.49,1-.79,1.48-.41.66-1,.94.47-.53-.21.21-.38.45-.59.66s-.36.32-.54.49c-.6.59,1.7-1.17.76-.6-.39.23-2,1-.58.42s-.31.06-.73.17a15.09,15.09,0,0,1-1.78.33l2-.27c-3.79.45-7.65-.12-11.41-.62l2,.27c-3-.41-6.11-.86-9.18-1.15-.63-.06-1.26-.13-1.89-.16a8.15,8.15,0,0,0-5.95,2.33c-.77.7-1.52,1.39-2.31,2.05s.87-.65.82-.63a6.26,6.26,0,0,0-.6.45c-.35.26-.71.52-1.08.77-.74.52-1.5,1-2.25,1.55a50.53,50.53,0,0,0-5.56,4.33,31.72,31.72,0,0,0-4.83,5.88,29.21,29.21,0,0,0-1.8,3.18,22.42,22.42,0,0,0-2.41,6.36,8.76,8.76,0,0,0,1,5c.3.7.78,2-.43-1,.36.91.73,1.81,1.06,2.73a52.84,52.84,0,0,1,2.72,10.72l-.27-2a29.25,29.25,0,0,1,.12,7.36c.09-.67.19-1.35.28-2a21.86,21.86,0,0,1-1,4c-.21.63,1-2.12.26-.69a10.33,10.33,0,0,1-.54,1c-.15.23-.32.45-.46.69,1.31-2.12.83-1,.3-.47-.19.21-.39.41-.6.61-.56.51-1.68,1,.41-.27-.85.51-1.64,1.13-2.45,1.69-1.57,1.07-3.16,2.13-4.76,3.16a78.94,78.94,0,0,1-8.94,5.1l-1.22.55c-1.24.57,1.88-.74.62-.26-.69.26-1.37.53-2.07.76a25.6,25.6,0,0,1-4.3,1l2-.27a18,18,0,0,1-4.64,0l2,.27a14.32,14.32,0,0,1-2-.4c-.35-.1-.69-.22-1-.34-1.34-.43,1.93.91.43.18a16.79,16.79,0,0,1-1.76-1c-.27-.18-.67-.61-1-.69,0,0,1.61,1.33.82.62l-.61-.52c-.62-.57-1.22-1.17-1.78-1.79l-.82-1c-.2-.24-.75-1,0,0s0,0-.09-.15a51.91,51.91,0,0,1-3.44-5.72c-3.37-6.32-7.63-12.86-14.89-15a27.5,27.5,0,0,0-8.48-.79c-3.26.09-6.53.13-9.78.28A18.59,18.59,0,0,0,101.4,217,27.71,27.71,0,0,0,95.87,225a75.42,75.42,0,0,1-4.38,8.65c-.08.13-.69.83-.68,1,0,0,1.35-1.62.71-.93-.12.13-.22.27-.34.4-.25.3-.52.58-.8.86s-.8.55-.87.77c0,0,1.72-1.2.92-.73-.19.11-.36.25-.55.36a5.72,5.72,0,0,1-1.21.64c0-.05,1.58-.58.84-.35-.33.1-.64.23-1,.32a14.42,14.42,0,0,1-1.93.41l2-.28a14.79,14.79,0,0,1-3.76,0l2,.27a21.4,21.4,0,0,1-3-.69l-1.1-.38c-.57-.21-2.25-1.07,0,0-1.83-.9-3.68-1.74-5.51-2.65a74.91,74.91,0,0,0-12.43-4.79c-1.49-.44-3-.88-4.45-1.43l-.73-.29c2.6.95,1.33.58.71.27a14.57,14.57,0,0,1-1.33-.75c-1.22-.73,1.49,1.32.74.6l-.55-.52c-.49-.46-.69-1.31.71,1-.13-.22-.29-.41-.41-.63s-.58-1.26,0,.22.21.51.1.16a11.5,11.5,0,0,1-.39-1.76c.1.68.19,1.36.28,2a31.69,31.69,0,0,1,0-6.46l-.27,2c1.24-8,7.26-15.46,4.87-23.87-1.1-3.88-3.41-7.34-5.44-10.78a56.68,56.68,0,0,1-2.86-5.32c-.12-.25-.23-.51-.34-.76.49,1.18.59,1.41.29.66-.2-.53-.4-1.06-.58-1.6a27.73,27.73,0,0,1-.86-3.37A7.43,7.43,0,0,0,49.07,172a91.42,91.42,0,0,0-17.32-1.5,124.76,124.76,0,0,1-15.46-.63l2,.28c-1.23-.17-2.45-.37-3.67-.61L20,174.87c-.16-.93-.3-1.87-.43-2.81.09.68.19,1.36.28,2-1.78-13.88.16-28.47-4.76-41.84q-1.77,4.32-3.52,8.63c4.2-2.1,8.36-4.29,12.62-6.26,1-.46,2-.87,3-1.33-2.27,1.08-.42.18.1,0l1.59-.63c2.34-.9,4.71-1.71,7.11-2.45a7.9,7.9,0,0,0,5.61-7.37c0-.69.11-1.37.19-2.06l-.27,2c.63-4.42,2.16-8.62,3-13a25.49,25.49,0,0,0,.61-7.07,23.56,23.56,0,0,0-2.55-8.29c-3.93-8.08-10.74-14.39-15.13-22.21l-1.2,9.27C32,75.62,35.15,68,38.55,60.6a60.17,60.17,0,0,1,5.3-9.76c.2-.29.42-.56.61-.84-1.47,2.11-.53.7-.12.22.59-.67,1.23-1.27,1.87-1.88.42-.36.33-.29-.29.2s-.73.55-.32.28l.46-.25c.67-.33.3-.18-1.11.44.69-.15,1.34-.42,2-.53l-2,.28a14.48,14.48,0,0,1,3.72,0l-2-.28a32.42,32.42,0,0,1,6.76,1.86l1,.4c.3.12,1.38.57.11,0s-.18-.07.11.06l1,.46c1.21.54,2.42,1.11,3.62,1.69,5,2.39,9.92,5,15.2,6.69a7.7,7.7,0,0,0,9.4-5.34A7.82,7.82,0,0,0,78.57,45c-1.1-.34-2.18-.75-3.26-1.18-1.23-.5,1.61.7.73.3l-.79-.34-2-.9c-2.51-1.17-5-2.42-7.48-3.6-5.63-2.67-11.32-5.17-17.58-5.79a16.92,16.92,0,0,0-7.6.91,18.66,18.66,0,0,0-8,6.1c-3.78,4.76-6.28,10.11-8.77,15.62-1.28,2.84-2.57,5.67-4.08,8.4a44.66,44.66,0,0,1-2.37,3.85l-.64.89c-.81,1.13,1.14-1.38.29-.39-.55.64-1.09,1.27-1.69,1.87A7.82,7.82,0,0,0,14.21,80c2.72,4.85,6.27,9.16,9.58,13.61a70.74,70.74,0,0,1,4.34,6.37c.34.56.66,1.14.95,1.72.18.35,1,2.13.41.79s.13.41.24.76a10.48,10.48,0,0,1,.35,1.57c-.1-.68-.19-1.36-.28-2a15.16,15.16,0,0,1-.09,3.5c.1-.67.19-1.35.28-2-.9,6.3-3.36,12.19-3.71,18.61l5.61-7.38c-9.82,3-18.88,7.66-28,12.25-2.79,1.4-4.62,5.64-3.51,8.63a51.39,51.39,0,0,1,2.59,10.94l-.27-2c1.43,11.2.67,22.54,2.59,33.71a7.41,7.41,0,0,0,5.34,5.34,91.49,91.49,0,0,0,17.32,1.5,126.81,126.81,0,0,1,15.47.62l-2-.27c1.23.17,2.46.37,3.67.61l-5.34-5.34c1,4.94,3.25,9.57,5.79,13.87,1,1.7,2,3.36,3,5.08.21.39.42.79.62,1.19s.81,1.79.21.39,0,0,.1.36a7.67,7.67,0,0,1,.28,1.17l-.27-2a10.41,10.41,0,0,1,0,2.3c.1-.68.19-1.35.28-2-.57,4.05-2.37,7.85-3.71,11.69a30.38,30.38,0,0,0-1.68,12.4c.33,4.11,1.43,8.16,4.53,11.08,2.8,2.64,6.39,4,10,5.16,1.94.61,3.92,1.09,5.85,1.71.53.17,1,.35,1.56.55a3.34,3.34,0,0,1,.77.3s-1.83-.81-.68-.28,2.13,1,3.18,1.5c4.28,2.12,8.65,4.55,13.41,5.32a21.34,21.34,0,0,0,17.27-4.37,25.05,25.05,0,0,0,6.27-8.32c1.54-3,2.74-6.24,4.56-9.12.18-.3.38-.58.58-.87.88-1.35-1.33,1.52-.26.33.5-.57,1-1.05,1.6-1.58-1.84,1.78-1.07.78-.33.35.29-.17.62-.29.9-.48-1.88,1.26-1.72.65-1.11.48.25-.07.5-.17.76-.24a10.62,10.62,0,0,1,1.36-.29l-2,.27c3-.39,6.08-.2,9.08-.32a38.51,38.51,0,0,1,6.62.09l-2-.27a11.06,11.06,0,0,1,1.71.36c.28.08.54.18.81.27.77.25-2.12-1-1.22-.51l.51.26a7.41,7.41,0,0,1,.67.4c1.43.94-1.23-1.08-.55-.46.5.47,1,.92,1.47,1.44.19.21.58.87.82,1,0,0-1.28-1.72-.69-.89l.34.47c.63.89,1.21,1.81,1.77,2.74,1.29,2.15,2.37,4.42,3.68,6.56,5.19,8.52,13.62,15.71,24.21,14.78,9.7-.86,18.22-6.1,26.12-11.44a42.29,42.29,0,0,0,6.75-5,20.76,20.76,0,0,0,4.46-7.21,26.75,26.75,0,0,0,1.4-12.3A60.46,60.46,0,0,0,193,197.63c.26,2,.51,3.93.77,5.89l.46-1.17c.35-.92-.71,1.52-.11.29.32-.65.62-1.31,1-1.95s.65-1.16,1-1.73c.25-.39.63-1.29,1-1.51-.05,0-1.23,1.51-.57.74l.54-.64c.35-.4.71-.78,1.09-1.16s.73-.7,1.11-1,1.7-1.37.47-.42.05,0,.38-.27l1.17-.82c.79-.55,1.59-1.08,2.37-1.64a48.23,48.23,0,0,0,6.14-5l-5.41,2.24c2.64.17,5.26.5,7.88.85l-2-.28c7.63,1,15.94,2.68,23.09-1.19,6.95-3.75,8.92-11.92,10.45-19a148.15,148.15,0,0,0,3-22.4,82.41,82.41,0,0,0,.11-9c-.1-1.78-.32-3.56-.58-5.33-.53-3.5-3.52-5.38-6.29-7.11-8.39-5.23-17.79-8.77-27.05-12.14l5.62,7.38c0-7.12-1.07-14.29-.2-21.38l-.27,2a37.49,37.49,0,0,1,1.12-5.15c.35-1.24-.78,1.56-.32.75.14-.25.25-.52.38-.77a22.17,22.17,0,0,1,1.3-2.14c.21-.31.43-.62.65-.92s.95-1.25.1-.14,0,.05.12-.14.5-.61.76-.91c1-1.22,2.09-2.41,3.15-3.61,4.61-5.22,9.11-10.65,9.09-18,0-12.08-10.17-21.09-18.75-28.18-4-3.3-8.35-6.43-11.66-10.44-2.06-2.48-6.64-2.91-9.27-1.2-3.29,2.14-6.43,4.5-9.76,6.58a56.82,56.82,0,0,1-5,2.75c-1.2.59,1.92-.72,0,0-.35.13-.71.26-1.07.37a17.87,17.87,0,0,1-2.81.64l2-.27a12.61,12.61,0,0,1-3.07,0l2,.27a9.67,9.67,0,0,1-1.32-.28c-1.79-.52,1.32.77.23.14s-2.22-1.31-3.3-2c-2.13-1.37-4.21-2.8-6.31-4.21A45.5,45.5,0,0,0,154,28.57l5.34,5.35c-2.79-9.15-3.95-18.67-6.56-27.87A7.87,7.87,0,0,0,145.38.44a162.91,162.91,0,0,0-28.11.37,75.42,75.42,0,0,0-15.78,2.77A27.67,27.67,0,0,0,95.2,6.31a16.28,16.28,0,0,0-6.54,8.32c-2.36,6-1.62,12.86-2.45,19.19l.27-2a22.69,22.69,0,0,1-.43,2.3c-.09.34-.22.66-.31,1-.25.64-.12.32.39-1q-.19.38-.42.75c-.28.49-.59,1-.91,1.43l-.25.35c-.47.64-.33.46.43-.54-.85.7-1.52,1.74-2.32,2.51s-1.72,1.54-2.61,2.28c-1.24,1,1.46-1.06.15-.12l-1.45,1c-2,1.38-4,2.66-6.07,3.93-3.39,2.12-5,6.93-2.74,10.47s6.83,5,10.46,2.74Z"/><path d="M120.79,93.86a40.63,40.63,0,0,1,8.68.13l-2-.27a37.3,37.3,0,0,1,5.13,1c.8.22,1.59.48,2.37.75l1,.38c1.66.65-1.75-.79-.13-.06a36.68,36.68,0,0,1,4.29,2.28c.69.42,1.36.87,2,1.34a8.41,8.41,0,0,0,1,.71s-1.67-1.32-.84-.64l.58.48a40.22,40.22,0,0,1,3.62,3.41c.55.58,1.08,1.19,1.59,1.8.23.27.44.55.67.82.54.67-1.16-1.52-.65-.83l.45.61a42.11,42.11,0,0,1,2.69,4.2c.4.71.77,1.42,1.13,2.15s1.48,3.62.41.81a48.92,48.92,0,0,1,2.9,10.89l-.27-2a42.73,42.73,0,0,1,0,11.07c.09-.68.19-1.36.28-2a40.89,40.89,0,0,1-1.8,7.63c-.21.6-.43,1.2-.67,1.79,0,.15-.12.3-.18.45-.23.62.52-1.12.46-1.09s-.38.85-.46,1a38.94,38.94,0,0,1-1.93,3.61c-.34.58-.7,1.14-1.07,1.69l-.58.84c-.18.26-1,1.41-.24.35s-.26.29-.47.54l-.86,1c-.61.67-1.25,1.31-1.91,1.93s-1.2,1.09-1.83,1.61c-.08.06-.38.37-.47.38s1.39-1,.76-.6c-.38.27-.75.55-1.13.8a31.32,31.32,0,0,1-4.16,2.42c-.3.15-1,.31-1.2.56-.05.06,1.67-.67,1-.4l-.7.27c-.81.31-1.64.59-2.48.83a36.73,36.73,0,0,1-5.28,1.12l2-.27a41.62,41.62,0,0,1-10.52,0l2,.28A49.85,49.85,0,0,1,113.58,155a12.4,12.4,0,0,1-2.4-.93s1.58.69.91.38l-.74-.34c-.43-.2-.86-.42-1.29-.64a54,54,0,0,1-4.78-2.73c-.67-.43-1.34-.88-2-1.35a8.36,8.36,0,0,1-1-.75c-.12-.13,1.45,1.16.84.64l-.55-.44a35.92,35.92,0,0,1-3.49-3.27c-.49-.52-1-1.05-1.42-1.6-.1-.13-.2-.26-.31-.38-.41-.48.7.91.7.91a7.4,7.4,0,0,0-.75-1A30.59,30.59,0,0,1,95,139.62c-.17-.33-.31-.68-.47-1-.33-.64.47,1.24.46,1.1a3.75,3.75,0,0,0-.3-.73c-.28-.74-.54-1.49-.76-2.25a34,34,0,0,1-1.07-5.08l.27,2a44.37,44.37,0,0,1,.13-11.28l-.27,2a43.52,43.52,0,0,1,2.12-9.38,4.55,4.55,0,0,1,.38-1c.11-.15-.79,1.75-.42,1,.11-.21.2-.43.3-.64.36-.76.74-1.51,1.16-2.25A41.81,41.81,0,0,1,99.28,108c.12-.15.23-.3.34-.46.44-.6-.67.82-.61.79.24-.09.56-.7.72-.9.58-.7,1.18-1.38,1.79-2a51,51,0,0,1,3.8-3.7c.24-.2,1.74-1.73,2-1.64,0,0-1.36,1-.76.6l.47-.35c.42-.32.85-.62,1.28-.92a44.74,44.74,0,0,1,4.5-2.71,11.7,11.7,0,0,0,2.59-1.24c.07-.06-1.67.68-1,.41l.7-.28c.47-.18.94-.35,1.42-.5a31.66,31.66,0,0,1,5.52-1.31L120,94a25.69,25.69,0,0,1,5.68-.14c4,.35,7.82-3.77,7.65-7.65-.2-4.44-3.37-7.27-7.65-7.65-11-1-21.56,4.4-29.85,11.14-7.61,6.2-14.33,15.14-16.55,24.84-2.13,9.28-2.81,19.63.72,28.66A40.46,40.46,0,0,0,87.9,156a49.17,49.17,0,0,0,11.46,9c9,5.28,19.94,8.47,30.47,7.82A42.39,42.39,0,0,0,159.09,159c12.07-13.55,15.22-33.66,8.29-50.39-3.26-7.84-8-15-14.79-20.29a45.59,45.59,0,0,0-25.72-9.88,41.17,41.17,0,0,0-6.08.11,8.23,8.23,0,0,0-5.4,2.24,7.76,7.76,0,0,0-2.24,5.41c.17,3.84,3.38,8,7.64,7.65Z"/></g></g></svg>